<ttFont>
<head>
    <!-- Most of this table will be recalculated by the compiler -->
    <tableVersion value="1.0"/>
    <fontRevision value="1.0"/>
    <checkSumAdjustment value="0xe6a093e4"/>
    <magicNumber value="0x5f0f3cf5"/>
    <flags value="00000000 00000011"/>
    <unitsPerEm value="2048"/>
    <created value="Thu Aug 15 19:11:28 2019"/>
    <modified value="Fri Aug 16 02:19:15 2019"/>
    <xMin value="-605"/>
    <yMin value="-503"/>
    <xMax value="4186"/>
    <yMax value="2105"/>
<macStyle value="00000000 00000010"/>
    <lowestRecPPEM value="3"/>
    <fontDirectionHint value="2"/>
    <indexToLocFormat value="0"/>
    <glyphDataFormat value="0"/>
  </head>
          <CharString index="0">
            359 -231 320 -490 -508 -300 -369 -462 -14 return
          </CharString>
          <CharString index="1">
            rmoveto
            -257 133 -138 175 return
          </CharString>
          <CharString index="2">
            -80 -376 rcurveline
            -239 -50 94 return
          </CharString>
          <CharString index="3">
            rmoveto
            -586 -72 -29 -136 65 return
          </CharString>
          <CharString index="4">
            hvcurveto
            -50 callsubr
            -28 183 -47 callgsubr
          </CharString>
          <CharString index="5">
            -76 callsubr
            57 callsubr
            endchar
          </CharString>
          <CharString index="6">
            -193 -910 -18 -84 -24 -18 return
          </CharString>
          <CharString index="7">
            142 23 rlinecurve
            30 142 return
          </CharString>
          <CharString index="8">
            -782 0 -30 -142 return
          </CharString>
          <CharString index="9">
            rmoveto
            -1 callsubr
            return
          </CharString>
          <CharString index="10">
            rmoveto
            362 300 264 357 291 156 callsubr
            102 callsubr
            -59 callgsubr
            endchar
          </CharString>
          <CharString index="11">
            rmoveto
            -28 callsubr
            67 callsubr
            endchar
          </CharString>
          <CharString index="12">
            132 -14 16 -27 -18 -84 rlinecurve
            return
          </CharString>
          <CharString index="13">
            -141 -23 rlinecurve
            -31 -142 return
          </CharString>
          <CharString index="14">
            782 0 30 142 return
          </CharString>
          <CharString index="15">
            -19 5 callsubr
            return
          </CharString>
          <CharString index="16">
            rmoveto
            193 910 18 84 24 18 return
          </CharString>
          <CharString index="17">
            rmoveto
            -1245 -36 callsubr
            1280 0 -55 callsubr
            endchar
          </CharString>
          <CharString index="18">
            -157 231 hhcurveto
            166 132 97 162 91 120 callgsubr
            return
          </CharString>
          <CharString index="19">
            10 callsubr
            endchar
          </CharString>
          <CharString index="20">
            rmoveto
            -528 -65 -29 -141 46 -13 return
          </CharString>
          <CharString index="21">
            55 callsubr
            endchar
          </CharString>
          <CharString index="22">
            rmoveto
            351 244 206 399 87 hvcurveto
            132 604 20 85 22 19 159 callsubr
            56 callsubr
            rlineto
            121 -23 16 -19 -19 -85 -110 -522 rcurveline
            -10 callsubr
            endchar
          </CharString>
          <CharString index="23">
            1614 rmoveto
            -214 -427 return
          </CharString>
          <CharString index="24">
            103 callsubr
            endchar
          </CharString>
          <CharString index="25">
            rmoveto
            114 91 89 107 -1 hvcurveto
            100 return
          </CharString>
          <CharString index="26">
            177 0 504 411 rlineto
            16 vlineto
            return
          </CharString>
          <CharString index="27">
            rmoveto
            -103 -85 -84 -101 -94 74 -77 99 104 return
          </CharString>
          <CharString index="28">
            -158 -746 433 0 return
          </CharString>
          <CharString index="29">
            -34 callsubr
            146 0 return
          </CharString>
          <CharString index="30">
            58 callsubr
            endchar
          </CharString>
          <CharString index="31">
            168 125 97 162 66 vhcurveto
            -4 -14 -2 -25 -16 vvcurveto
            -132 -3 return
          </CharString>
          <CharString index="32">
            1185 rmoveto
            122 return
          </CharString>
          <CharString index="33">
            -87 -426 rlineto
            -195 -39 80 -94 167 hhcurveto
            148 135 61 83 75 hvcurveto
            31 142 rlineto
            -18 -27 -33 -9 -34 hhcurveto
            -52 -18 35 82 17 hvcurveto
            -43 callgsubr
            -173 -128 -97 -163 -83 hvcurveto
            return
          </CharString>
          <CharString index="34">
            174 369 -106 callsubr
            return
          </CharString>
          <CharString index="35">
            -30 -142 770 0 30 142 return
          </CharString>
          <CharString index="36">
            1550 rmoveto
            214 return
          </CharString>
          <CharString index="37">
            1614 rmoveto
            -245 -183 -169 183 return
          </CharString>
          <CharString index="38">
            426 321 rlineto
            13 vlineto
            return
          </CharString>
          <CharString index="39">
            771 0 30 142 return
          </CharString>
          <CharString index="40">
            225 callsubr
            endchar
          </CharString>
          <CharString index="41">
            rmoveto
            183 169 callsubr
            46 -137 rlinecurve
            endchar
          </CharString>
          <CharString index="42">
            1539 rmoveto
            103 84 84 101 94 return
          </CharString>
          <CharString index="43">
            85 84 103 93 -74 76 -100 hvcurveto
            endchar
          </CharString>
          <CharString index="44">
            rmoveto
            227 94 81 128 121 return
          </CharString>
          <CharString index="45">
            -78 hhcurveto
            -22 hlineto
            -78 -73 return
          </CharString>
          <CharString index="46">
            -133 19 -16 19 19 87 rlinecurve
            193 910 19 87 24 19 141 19 rlinecurve
            30 142 -770 0 -31 -142 -82 callgsubr
            -75 -356 -411 0 75 356 18 84 23 19 133 22 -6 callsubr
            132 -23 16 -18 -18 -84 rlinecurve
            -101 callsubr
            45 callsubr
            return
          </CharString>
          <CharString index="47">
            74 -66 128 270 callsubr
            -27 -33 -9 -33 hhcurveto
            -53 -17 35 82 17 hvcurveto
            return
          </CharString>
          <CharString index="48">
            0 137 648 rlineto
            129 27 72 59 -79 callgsubr
            return
          </CharString>
          <CharString index="49">
            -569 -70 -28 -136 65 -19 47 callsubr
            return
          </CharString>
          <CharString index="50">
            rmoveto
            697 hlineto
            44 208 rlineto
            -697 hlineto
            endchar
          </CharString>
          <CharString index="51">
            86 84 103 93 -74 76 -101 hvcurveto
            endchar
          </CharString>
          <CharString index="52">
            106 457 rlineto
            -131 hlineto
            -117 -251 -47 -27 -221 -8 rrcurveto
            -210 -8 104 490 rlineto
            144 hlineto
            67 17 -24 -165 -7 hvcurveto
            123 hlineto
            115 541 rlineto
            -123 hlineto
            -162 -62 -28 -27 -68 hhcurveto
            -144 hlineto
            99 465 184 -6 220 -7 28 -30 12 -216 rlinecurve
            130 hlineto
            return
          </CharString>
          <CharString index="53">
            rmoveto
            -587 85 callsubr
            -138 -655 -53 -253 -38 -80 -185 -102 rlinecurve
            41 -132 378 92 216 140 79 370 rlinecurve
            endchar
          </CharString>
          <CharString index="54">
            -591 -69 -28 -136 66 -19 47 callsubr
            -252 -1194 return
          </CharString>
          <CharString index="55">
            -1 -81 81 -108 hhcurveto
            -114 -92 -89 -109 return
          </CharString>
          <CharString index="56">
            98 119 111 -87 90 -116 -123 return
          </CharString>
          <CharString index="57">
            -359 -11 241 -320 491 hhcurveto
            return
          </CharString>
          <CharString index="58">
            78 74 49 70 15 hvcurveto
            70 15 -53 48 return
          </CharString>
          <CharString index="59">
            -265 -33 hvcurveto
            144 hlineto
            86 return
          </CharString>
          <CharString index="60">
            145 0 -69 callsubr
            return
          </CharString>
          <CharString index="61">
            rmoveto
            -123 76 -119 174 -57 vhcurveto
            -165 -39 -98 -94 -112 vvcurveto
            -72 39 -64 83 -39 vhcurveto
            -184 -25 -94 -84 -92 vvcurveto
            -147 208 -94 333 375 260 140 232 172 -131 115 -224 31 vhcurveto
            -213 29 -96 14 -30 24 -1 30 rlinecurve
            24 18 17 26 9 vhcurveto
            -8 45 50 -3 55 hhcurveto
            340 206 173 226 50 -12 52 -29 47 hvcurveto
            215 -60 39 194 -413 -10 rlineto
            30 -76 -100 19 -132 hhcurveto
            -331 -213 -147 -239 hvcurveto
            412 -24 rmoveto
            113 50 133 89 62 33 -58 -87 -122 -51 -125 -88 -62 -33 60 86 vhcurveto
            -262 -836 rmoveto
            49 30 38 47 22 vhcurveto
            4 -1 212 -29 rlineto
            143 -19 35 -29 -52 vvcurveto
            -64 -97 -47 -143 -150 -81 52 80 vhcurveto
            endchar
          </CharString>
          <CharString index="62">
            rmoveto
            348 199 398 263 159 88 -105 -203 5 vhcurveto
            94 callgsubr
            -499 -378 -328 -496 -8 hvcurveto
            return
          </CharString>
          <CharString index="63">
            -42 -57 -16 callgsubr
            0 callgsubr
            rlineto
            -241 -51 102 -132 241 hhcurveto
            return
          </CharString>
          <CharString index="64">
            136 158 -136 153 0 -126 334 -298 0 -261 -334 rlineto
            return
          </CharString>
          <CharString index="65">
            73 callsubr
            -128 427 -332 0 -302 -427 rlineto
            return
          </CharString>
          <CharString index="66">
            99 -51 callsubr
            -100 34 callsubr
            return
          </CharString>
          <CharString index="67">
            -73 76 -99 -104 -86 -83 -104 -93 74 -75 101 hvcurveto
            return
          </CharString>
          <CharString index="68">
            1197 rmoveto
            115 -5 callsubr
            return
          </CharString>
          <CharString index="69">
            1908 rmoveto
            -117 -84 -31 -43 return
          </CharString>
          <CharString index="70">
            184 -87 0 -379 -184 rlineto
            return
          </CharString>
          <CharString index="71">
            hlineto
            -30 -142 200 callsubr
            return
          </CharString>
          <CharString index="72">
            165 callsubr
            -167 0 return
          </CharString>
          <CharString index="73">
            1884 rmoveto
            -193 -334 return
          </CharString>
          <CharString index="74">
            1614 rmoveto
            -453 -16 hlineto
            return
          </CharString>
          <CharString index="75">
            371 -411 rlineto
            171 hlineto
            return
          </CharString>
          <CharString index="76">
            1596 rmoveto
            749 -103 return
          </CharString>
          <CharString index="77">
            104 84 84 101 94 -74 76 return
          </CharString>
          <CharString index="78">
            rmoveto
            -8 -475 350 -212 387 -1 rrcurveto
            212 202 54 71 113 hvcurveto
            83 390 17 79 19 23 121 16 rlinecurve
            30 142 -685 0 -30 -142 rlineto
            128 -16 13 -22 -16 -78 -64 -307 rcurveline
            -14 -24 -31 -6 -34 hhcurveto
            -171 -107 136 249 348 199 398 263 158 89 -13 callgsubr
            -500 -378 -328 -496 -8 hvcurveto
            endchar
          </CharString>
          <CharString index="79">
            -147 1097 -402 0 -617 -1094 -93 -166 -27 -24 -121 -18 rlinecurve
            -30 -142 510 0 30 142 -138 23 -15 30 85 156 rlinecurve
            41 76 432 0 8 -76 return
          </CharString>
          <CharString index="80">
            1452 1716 1444 rmoveto
            -1366 hlineto
            69 callsubr
            18 callsubr
            157 callsubr
            140 callsubr
            return
          </CharString>
          <CharString index="81">
            1174 rmoveto
            129 -106 callgsubr
            -105 -103 -128 -115 92 -93 123 hvcurveto
            return
          </CharString>
          <CharString index="82">
            1408 801 1068 -104 callsubr
            -92 callsubr
            -80 -376 rcurveline
            return
          </CharString>
          <CharString index="83">
            137 646 rlineto
            129 28 72 61 -79 callgsubr
            -74 callsubr
            endchar
          </CharString>
          <CharString index="84">
            115 511 rlineto
            -129 hlineto
            -136 -288 -75 -50 -186 -6 rrcurveto
            -138 -4 return
          </CharString>
          <CharString index="85">
            rmoveto
            411 87 375 -87 24 116 -316 156 -89 0 -381 -156 rlineto
            return
          </CharString>
          <CharString index="86">
            1909 rmoveto
            771 -87 24 111 -754 172 rlineto
            return
          </CharString>
          <CharString index="87">
            1909 rmoveto
            41 196 -826 -172 -24 -111 rlineto
            return
          </CharString>
          <CharString index="88">
            1596 rmoveto
            48 230 -813 -202 -28 -131 rlineto
            return
          </CharString>
          <CharString index="89">
            -47 hvcurveto
            -21 -100 rlineto
            13 26 50 12 48 hhcurveto
            73 40 -25 -45 return
          </CharString>
          <CharString index="90">
            1593 rmoveto
            674 hlineto
            44 208 rlineto
            -674 hlineto
            return
          </CharString>
          <CharString index="91">
            -476 -8 349 -212 386 185 callsubr
          </CharString>
          <CharString index="92">
            0 128 -427 331 0 302 427 rlineto
            return
          </CharString>
          <CharString index="93">
            128 -333 332 0 262 333 rlineto
            return
          </CharString>
          <CharString index="94">
            79 58 82 17 hvcurveto
            83 18 -55 57 -82 hhcurveto
            return
          </CharString>
          <CharString index="95">
            34 hvcurveto
            42 -13 rlineto
            -16 50 54 -14 61 hhcurveto
            return
          </CharString>
          <CharString index="96">
            -22 -105 rlineto
            40 hlineto
            76 35 -24 -38 -39 -40 return
          </CharString>
          <CharString index="97">
            -473 -100 267 -214 353 hhcurveto
            return
          </CharString>
          <CharString index="98">
            898 1513 60 callsubr
            return
          </CharString>
          <CharString index="99">
            519 hmoveto
            115 92 93 112 104 return
          </CharString>
          <CharString index="100">
            hvcurveto
            -42 13 rlineto
            16 -40 callgsubr
            return
          </CharString>
          <CharString index="101">
            rlinecurve
            30 142 -771 0 -30 -142 return
          </CharString>
          <CharString index="102">
            93 93 112 104 -82 84 -109 return
          </CharString>
          <CharString index="103">
            9 14 -17 hvcurveto
            -23 18 rlineto
            39 -53 return
          </CharString>
          <CharString index="104">
            rmoveto
            113 91 96 callgsubr
          </CharString>
          <CharString index="105">
            1614 rmoveto
            -370 -12 hlineto
            return
          </CharString>
          <CharString index="106">
            507 315 369 462 return
          </CharString>
          <CharString index="107">
            -48 -70 -16 hvcurveto
            -70 -14 52 -49 return
          </CharString>
          <CharString index="108">
            rmoveto
            3 callsubr
            18 -55 return
          </CharString>
          <CharString index="109">
            -116 -93 -92 -114 -103 return
          </CharString>
          <CharString index="110">
            82 79 58 82 17 hvcurveto
            83 return
          </CharString>
          <CharString index="111">
            61 61 58 hhcurveto
            49 36 -46 return
          </CharString>
          <CharString index="112">
            rlineto
            55 -17 9 -18 -13 -60 return
          </CharString>
          <CharString index="113">
            rmoveto
            97 -1097 390 0 454 883 61 -883 404 0 557 1096 83 166 34 23 117 17 rlinecurve
            30 142 -500 0 -31 -142 130 -12 230 callsubr
            endchar
          </CharString>
          <CharString index="114">
            215 1014 18 84 26 17 149 24 rlinecurve
            31 142 -791 0 -30 -142 rlineto
            132 -23 16 -18 -18 -84 -193 -910 rcurveline
            -18 -14 callgsubr
            return
          </CharString>
          <CharString index="115">
            247 1157 -590 -69 -29 -136 67 -19 rlineto
            55 -17 8 -18 -13 -60 -43 -205 rcurveline
            98 callgsubr
            return
          </CharString>
          <CharString index="116">
            267 rmoveto
            81 callgsubr
            return
          </CharString>
          <CharString index="117">
            134 139 61 83 75 hvcurveto
            30 142 rlineto
            -18 -32 -30 98 callsubr
            -5 callgsubr
            return
          </CharString>
          <CharString index="118">
            rmoveto
            191 162 260 callsubr
            241 callsubr
            -339 237 -148 236 vhcurveto
            endchar
          </CharString>
          <CharString index="119">
            rmoveto
            79 374 88 0 187 -641 511 0 29 136 -59 29 218 callsubr
            endchar
          </CharString>
          <CharString index="120">
            57 -82 hhcurveto
            -22 hlineto
            -82 -79 -57 -83 -76 callgsubr
            return
          </CharString>
          <CharString index="121">
            hmoveto
            79 74 49 70 14 hvcurveto
            70 15 -53 48 -78 hhcurveto
            -21 hlineto
            -79 -73 -48 -70 -15 hvcurveto
            -70 return
          </CharString>
          <CharString index="122">
            -23 hlineto
            -82 -78 -57 -83 -76 callgsubr
            return
          </CharString>
          <CharString index="123">
            rmoveto
            -567 85 callsubr
            -79 callsubr
            180 callsubr
            endchar
          </CharString>
          <CharString index="124">
            1297 1255 hmoveto
            -23 callsubr
            7 callsubr
            return
          </CharString>
          <CharString index="125">
            1 -215 -1014 -18 -84 -25 -20 -153 -21 rlinecurve
            -31 -142 return
          </CharString>
          <CharString index="126">
            89 74 74 90 hvcurveto
            83 1 -64 68 -86 hhcurveto
            -90 -75 -74 -92 return
          </CharString>
          <CharString index="127">
            -30 -29 -41 hhcurveto
            -26 -23 11 18 -23 hvcurveto
            -30 24 rlineto
            47 return
          </CharString>
          <CharString index="128">
            1539 rmoveto
            103 85 84 101 94 -74 76 -99 -104 return
          </CharString>
          <CharString index="129">
            105 457 rlineto
            -131 hlineto
            53 callgsubr
            endchar
          </CharString>
          <CharString index="130">
            58 70 hvcurveto
            3 0 3 1 vvcurveto
            -139 hlineto
            -9 -24 return
          </CharString>
          <CharString index="131">
            -5 -35 -36 vvcurveto
            -158 131 -118 177 vhcurveto
            return
          </CharString>
          <CharString index="132">
            1188 rmoveto
            235 162 144 280 return
          </CharString>
          <CharString index="133">
            392 hmoveto
            90 73 74 90 1 hvcurveto
            83 -64 68 return
          </CharString>
          <CharString index="134">
            14 24 24 34 hhcurveto
            20 19 -9 -14 17 hvcurveto
            23 return
          </CharString>
          <CharString index="135">
            81 323 41 hvcurveto
            -162 hlineto
            -109 -17 return
          </CharString>
          <CharString index="136">
            rmoveto
            771 hlineto
            40 188 rlineto
            -771 hlineto
            return
          </CharString>
          <CharString index="137">
            1788 829 124 callsubr
            return
          </CharString>
          <CharString index="138">
            906 523 -20 162 callsubr
            return
          </CharString>
          <CharString index="139">
            195 -826 -171 -24 -111 rlineto
            return
          </CharString>
          <CharString index="140">
            -97 75 -121 -89 -76 -29 -37 -46 hvcurveto
            return
          </CharString>
          <CharString index="141">
            -99 -121 -110 87 -88 118 hvcurveto
            return
          </CharString>
          <CharString index="142">
            rmoveto
            405 103 362 -103 30 137 return
          </CharString>
          <CharString index="143">
            -239 -50 94 -89 callsubr
            return
          </CharString>
          <CharString index="144">
            -109 rlineto
            6 23 38 5 27 hhcurveto
            return
          </CharString>
          <CharString index="145">
            hvcurveto
            -99 1 82 -80 109 hhcurveto
            endchar
          </CharString>
          <CharString index="146">
            rmoveto
            226 165 159 -165 return
          </CharString>
          <CharString index="147">
            1884 rmoveto
            -364 -13 hlineto
            return
          </CharString>
          <CharString index="148">
            1547 29 callsubr
            return
          </CharString>
          <CharString index="149">
            333 0 261 333 rlineto
            return
          </CharString>
          <CharString index="150">
            140 653 rlineto
            122 26 return
          </CharString>
          <CharString index="151">
            -85 -83 -104 -93 74 -75 100 hvcurveto
            return
          </CharString>
          <CharString index="152">
            -142 -23 rlinecurve
            -30 -142 return
          </CharString>
          <CharString index="153">
            425 321 rlineto
            13 vlineto
            return
          </CharString>
          <CharString index="154">
            56 -17 8 -18 -13 -60 rlinecurve
            return
          </CharString>
          <CharString index="155">
            hlineto
            43 9 29 22 47 hhcurveto
            return
          </CharString>
          <CharString index="156">
            rmoveto
            -151 -161 -44 -30 -136 -20 rrcurveto
            -30 -142 535 0 30 142 -125 22 -8 32 121 136 rlinecurve
            184 206 88 -202 60 -138 -17 -30 -135 -22 rlinecurve
            -30 -142 822 0 30 142 -102 30 -32 29 -56 127 rlinecurve
            -190 430 299 330 147 162 47 28 135 20 rlinecurve
            30 142 -530 0 -31 -142 126 -22 7 -31 -120 -137 rlinecurve
            -175 -201 -89 201 -60 137 17 31 136 22 rlinecurve
            30 142 -822 0 -31 -142 rlineto
            102 -30 33 -29 56 -126 189 -430 rcurveline
            endchar
          </CharString>
          <CharString index="157">
            478 hlineto
            29 136 rlineto
            -61 21 -32 45 -65 171 -109 283 rcurveline
            192 71 149 129 205 vvcurveto
            250 -223 133 -438 vhcurveto
            -688 hlineto
            -30 -142 38 callgsubr
            769 0 31 142 rlineto
            -117 20 -13 21 18 84 67 319 rcurveline
            116 hlineto
            309 451 rmoveto
            -138 -92 -141 -226 -7 vhcurveto
            -71 -2 111 528 47 -2 rlineto
            153 -4 78 -84 -150 vvcurveto
            return
          </CharString>
          <CharString index="158">
            30 142 rlineto
            -157 18 -17 22 16 79 56 259 rcurveline
            187 hlineto
            463 270 189 295 274 -186 166 -481 hvcurveto
            -688 hlineto
            -30 -142 rlineto
            139 -16 14 -23 -17 -79 -196 -924 rcurveline
            -18 -79 -22 -23 -146 -16 -31 -142 rcurveline
            903 1279 rmoveto
            43 -2 rlineto
            132 -7 96 -77 -164 vvcurveto
            -223 -140 -116 -183 -5 vhcurveto
            -75 -3 rlineto
            endchar
          </CharString>
          <CharString index="159">
            rmoveto
            -694 hlineto
            -30 -142 134 -19 9 -32 -24 -104 rlinecurve
            -202 -885 -19 -80 -22 -24 -142 -16 rlinecurve
            -31 -142 513 0 30 142 -137 16 -9 24 17 80 rlinecurve
            157 783 121 -1045 255 0 322 618 225 426 -151 -784 -15 -79 -23 -23 -145 -16 -12 callgsubr
            7 callgsubr
            endchar
          </CharString>
          <CharString index="160">
            216 -81 203 -170 124 hvcurveto
            -8 46 52 -4 55 hhcurveto
            203 140 92 144 113 -72 107 -108 56 -92 callgsubr
            -169 -114 -129 -158 vhcurveto
            -137 -95 33 -163 hhcurveto
            -21 callgsubr
            494 -126 rmoveto
            62 callsubr
            -126 -73 105 265 vhcurveto
            endchar
          </CharString>
          <CharString index="161">
            351 245 206 399 86 hvcurveto
            163 749 rlineto
            -2 19 19 -2 19 hhcurveto
            189 124 91 153 121 -75 108 -89 52 -92 callgsubr
            -161 -100 -137 -213 vhcurveto
            -101 hlineto
            -30 -142 rlineto
            56 callsubr
            121 -23 16 -19 -19 -85 rlinecurve
            endchar
          </CharString>
          <CharString index="162">
            rmoveto
            189 157 75 105 75 hvcurveto
            30 143 rlineto
            178 callsubr
            -339 235 -148 238 vhcurveto
            150 929 rmoveto
            46 24 -40 -52 -113 -84 -86 -125 -45 hvcurveto
            -37 -13 rlineto
            210 73 139 103 vhcurveto
            return
          </CharString>
          <CharString index="163">
            138 -26 14 -16 -18 -85 -121 -583 rcurveline
            -238 -50 -127 -105 -162 hhcurveto
            -172 -106 114 276 59 hvcurveto
            114 536 18 85 23 16 147 26 rlinecurve
            30 142 -772 0 -31 -142 return
          </CharString>
          <CharString index="164">
            73 -66 126 270 callsubr
            -26 -33 98 callsubr
            148 696 -250 0 -153 -122 rlineto
            80 -38 -90 67 -151 hhcurveto
            -313 -247 -294 -414 hvcurveto
            -3 callgsubr
            return
          </CharString>
          <CharString index="165">
            rmoveto
            -589 -70 -29 -136 66 -19 rlineto
            55 -17 8 -18 -12 -60 -102 -477 rcurveline
            -195 -42 83 -94 167 hhcurveto
            147 137 61 83 76 hvcurveto
            30 142 rlineto
            -88 callgsubr
            return
          </CharString>
          <CharString index="166">
            rmoveto
            111 -115 157 159 36 -105 callgsubr
            165 109 256 124 hvcurveto
            -97 86 rlineto
            -50 -71 -57 -32 -49 -78 callgsubr
            -26 132 callsubr
            endchar
          </CharString>
          <CharString index="167">
            rmoveto
            -83 callgsubr
            rlineto
            56 -17 8 -18 -13 -60 -197 -925 rcurveline
            -195 -42 83 -94 167 hhcurveto
            78 callgsubr
            return
          </CharString>
          <CharString index="168">
            -63 29 -74 hhcurveto
            -126 -110 -81 -322 -41 hvcurveto
            162 hlineto
            108 17 31 30 40 hhcurveto
            26 23 -11 -19 23 hvcurveto
            return
          </CharString>
          <CharString index="169">
            381 143 393 213 125 74 -105 -265 -381 -144 -393 -212 return
          </CharString>
          <CharString index="170">
            136 159 -136 152 0 -126 334 -298 0 -261 -334 rlineto
            return
          </CharString>
          <CharString index="171">
            -21 -74 -1 hvcurveto
            -56 1 -44 14 -30 14 -30 -128 rcurveline
            -29 59 77 -21 90 hhcurveto
            endchar
          </CharString>
          <CharString index="172">
            123 -97 96 -137 -135 -111 -100 -137 -123 97 -97 137 hvcurveto
            return
          </CharString>
          <CharString index="173">
            1887 rmoveto
            -218 -134 -164 134 -167 0 128 -333 return
          </CharString>
          <CharString index="174">
            25 callgsubr
            -831 252 rmoveto
            267 495 53 -495 rlineto
            return
          </CharString>
          <CharString index="175">
            107 90 145 30 hvcurveto
            -168 hlineto
            -43 -9 -29 -21 -47 hhcurveto
            -28 -30 return
          </CharString>
          <CharString index="176">
            -97 -422 rlineto
            130 hlineto
            95 222 49 30 204 6 rrcurveto
            33 return
          </CharString>
          <CharString index="177">
            1145 rmoveto
            299 469 -312 0 -139 -469 rlineto
            return
          </CharString>
          <CharString index="178">
            rmoveto
            -146 -428 236 0 324 412 rlineto
            16 vlineto
            endchar
          </CharString>
          <CharString index="179">
            rmoveto
            151 107 90 145 30 hvcurveto
            -169 hlineto
            -43 -8 -30 -21 return
          </CharString>
          <CharString index="180">
            1187 rmoveto
            245 183 169 -183 170 0 return
          </CharString>
          <CharString index="181">
            72 291 36 hvcurveto
            -151 hlineto
            -98 -15 -28 -27 -38 hhcurveto
            -24 return
          </CharString>
          <CharString index="182">
            81 128 121 -97 75 -121 -89 -76 -29 -37 return
          </CharString>
          <CharString index="183">
            -45 hvcurveto
            -26 37 callsubr
            48 44 -18 -36 -36 return
          </CharString>
          <CharString index="184">
            240 -415 rlineto
            178 -65 callgsubr
            return
          </CharString>
          <CharString index="185">
            -74 76 -98 -105 -85 -83 -104 -93 74 -75 101 hvcurveto
            return
          </CharString>
          <CharString index="186">
            rmoveto
            102 callsubr
            222 callsubr
            endchar
          </CharString>
          <CharString index="187">
            rmoveto
            697 hlineto
            44 208 rlineto
            -696 hlineto
            endchar
          </CharString>
          <CharString index="188">
            1704 955 -33 -98 callsubr
            return
          </CharString>
          <CharString index="189">
            1197 rmoveto
            115 92 93 112 104 return
          </CharString>
          <CharString index="190">
            168 48 callsubr
            28 30 -8 -11 return
          </CharString>
          <CharString index="191">
            87 374 -87 25 116 -316 156 return
          </CharString>
          <CharString index="192">
            -70 -28 -136 64 -19 47 callsubr
            return
          </CharString>
          <CharString index="193">
            -81 84 -109 -116 95 callsubr
            return
          </CharString>
          <CharString index="194">
            -104 -103 -128 -115 91 -93 124 hvcurveto
            return
          </CharString>
          <CharString index="195">
            rmoveto
            1058 hlineto
            65 307 rlineto
            -1058 hlineto
            return
          </CharString>
          <CharString index="196">
            hlineto
            -204 -51 127 -120 240 hhcurveto
            return
          </CharString>
          <CharString index="197">
            -71 callgsubr
            -16 -83 -49 -107 hhcurveto
            return
          </CharString>
          <CharString index="198">
            2 callsubr
            82 -84 110 hvcurveto
            return
          </CharString>
          <CharString index="199">
            959 1444 170 callsubr
            return
          </CharString>
          <CharString index="200">
            176 0 505 411 rlineto
            16 vlineto
            return
          </CharString>
          <CharString index="201">
            0 128 -333 42 callsubr
            return
          </CharString>
          <CharString index="202">
            -94 -92 -114 -103 82 -84 111 hvcurveto
            return
          </CharString>
          <CharString index="203">
            rlinecurve
            31 142 -771 0 -30 -142 return
          </CharString>
          <CharString index="204">
            56 -82 hhcurveto
            -22 hlineto
            -82 -78 -56 -83 return
          </CharString>
          <CharString index="205">
            -9 -34 hhcurveto
            -53 -17 35 82 17 hvcurveto
            return
          </CharString>
          <CharString index="206">
            -44 -127 hhcurveto
            -127 -79 45 66 return
          </CharString>
          <CharString index="207">
            -46 -25 45 106 -3 hvcurveto
            238 -2 return
          </CharString>
          <CharString index="208">
            1883 -23 callgsubr
            return
          </CharString>
          <CharString index="209">
            -291 181 -192 323 return
          </CharString>
          <CharString index="210">
            -132 23 -16 18 18 84 rlinecurve
            return
          </CharString>
          <CharString index="211">
            -123 22 -15 19 18 84 rlinecurve
            return
          </CharString>
          <CharString index="212">
            442 16 189 callsubr
          </CharString>
          <CharString index="213">
            319 -320 rlineto
            138 hlineto
            return
          </CharString>
          <CharString index="214">
            28 131 -728 202 rlineto
            return
          </CharString>
          <CharString index="215">
            -1 -81 81 -108 hhcurveto
            -115 return
          </CharString>
          <CharString index="216">
            -18 rlineto
            -38 53 53 -24 63 hhcurveto
            return
          </CharString>
          <CharString index="217">
            -53 23 -63 hhcurveto
            -108 -94 -65 return
          </CharString>
          <CharString index="218">
            rmoveto
            227 198 callsubr
          </CharString>
          <CharString index="219">
            rmoveto
            -107 75 -84 115 118 73 64 189 106 vhcurveto
            27 48 27 -73 rlineto
            -154 56 88 -74 155 hhcurveto
            129 122 60 81 53 hvcurveto
            30 143 rlineto
            -18 -32 -29 -9 -38 hhcurveto
            -58 -41 31 93 -35 hvcurveto
            -98 258 70 98 15 21 15 19 13 17 rlinecurve
            -45 33 55 -29 63 hhcurveto
            113 83 86 105 107 -75 84 -114 -119 -73 -64 -189 -106 hvcurveto
            -32 -57 -114 298 -463 -62 -29 -141 49 -11 71 -17 18 -17 24 -66 rlinecurve
            117 -319 -67 -92 -15 -22 -14 -18 -13 -17 rlinecurve
            45 -34 -54 29 -64 hhcurveto
            -112 -84 -86 -105 hvcurveto
            endchar
          </CharString>
          <CharString index="220">
            rmoveto
            383 259 212 296 172 -87 123 -204 115 hvcurveto
            -76 42 rlineto
            -122 69 -54 50 85 vvcurveto
            93 85 65 116 164 99 -100 -206 8 vhcurveto
            131 hlineto
            67 356 rlineto
            65 -78 -173 75 -238 hhcurveto
            -450 -184 -257 -231 -183 83 -118 218 -123 hvcurveto
            75 -43 rlineto
            128 -73 39 -52 -86 vvcurveto
            -93 -80 -63 -129 -170 -132 112 189 -3 vhcurveto
            -131 hlineto
            -57 -377 rlineto
            -58 95 186 -56 232 hhcurveto
            return
          </CharString>
          <CharString index="221">
            rmoveto
            335 302 249 405 59 hvcurveto
            312 44 -105 137 -177 hhcurveto
            -154 -100 -153 -182 16 hvcurveto
            203 -25 53 -131 -32 -154 rrcurveto
            -145 -29 -108 -80 -102 hhcurveto
            -124 -38 75 122 25 hvcurveto
            17 79 33 135 20 92 rrcurveto
            258 54 -82 103 -223 hhcurveto
            -118 -100 -40 -30 -65 hvcurveto
            -28 -135 rlineto
            2 8 16 2 14 hhcurveto
            66 18 -35 -102 -22 hvcurveto
            -22 -102 -29 -117 -26 -126 rrcurveto
            -254 -55 141 -160 315 hhcurveto
            endchar
          </CharString>
          <CharString index="222">
            rmoveto
            -57 75 161 -53 185 hhcurveto
            420 128 198 168 1 hvcurveto
            1 146 -75 93 -151 71 rrcurveto
            -98 46 -90 42 -33 33 1 50 rlinecurve
            53 1 42 34 75 hhcurveto
            121 82 -67 -116 16 hvcurveto
            130 hlineto
            48 273 rlineto
            44 -86 -137 35 -174 hhcurveto
            -325 -210 -141 -219 -152 83 -90 156 -73 hvcurveto
            98 -46 84 -40 25 -30 -1 -50 rlinecurve
            -52 -1 -46 -39 -85 hhcurveto
            -119 -106 74 144 -17 hvcurveto
            -130 hlineto
            return
          </CharString>
          <CharString index="223">
            -176 -158 -119 -84 -144 -69 vhcurveto
            53 217 -568 85 callsubr
            -203 -956 -15 -68 -19 -16 -129 -24 rlinecurve
            -30 -142 -93 callsubr
            rlineto
            -184 28 -14 11 13 67 52 276 rcurveline
            -52 48 79 -38 112 hhcurveto
            313 248 295 414 hvcurveto
            -442 -16 rmoveto
            -201 -66 -292 -163 -54 -30 24 29 -7 69 callgsubr
          </CharString>
          <CharString index="224">
            1667 930 -32 rmoveto
            463 352 336 465 411 -322 298 -380 -462 -352 -336 -465 -411 323 -298 378 hvcurveto
            2 108 rmoveto
            -314 -268 250 352 405 305 287 387 314 267 -251 -351 -405 -303 -287 -388 hvcurveto
            return
          </CharString>
          <CharString index="225">
            1587 836 -34 rmoveto
            351 244 206 399 87 hvcurveto
            132 604 20 85 22 19 159 callsubr
            56 callsubr
            rlineto
            121 -23 16 -19 -19 -85 -110 -522 rcurveline
            -10 callsubr
            return
          </CharString>
          <CharString index="226">
            -86 -17 hvcurveto
            -144 -704 431 0 137 653 rlineto
            122 26 4 callsubr
            -87 -18 hvcurveto
            -87 -434 rlineto
            -195 -40 -31 callgsubr
            76 hvcurveto
            30 142 rlineto
            -88 callgsubr
            -43 callgsubr
            -6 callgsubr
            endchar
          </CharString>
          <CharString index="227">
            852 1444 rmoveto
            -130 hlineto
            -348 -138 -19 -92 152 15 8 1 4 -4 -1 -6 rlinecurve
            -92 -433 -13 -62 -36 -19 -127 -12 rlinecurve
            -19 -94 598 0 19 94 -122 12 -26 19 13 62 rlinecurve
            return
          </CharString>
          <CharString index="228">
            rmoveto
            246 178 102 173 30 hvcurveto
            -168 hlineto
            -56 -18 -98 -38 -131 hhcurveto
            -130 -83 39 55 6 hvcurveto
            -167 hlineto
            -173 -44 134 -102 245 hhcurveto
            375 -1182 -96 callsubr
          </CharString>
          <CharString index="229">
            rmoveto
            -133 -700 rlineto
            -262 -49 112 -116 232 hhcurveto
            168 162 66 90 87 hvcurveto
            30 141 rlineto
            -20 -43 -50 -10 -51 hhcurveto
            -128 -64 59 132 36 hvcurveto
            171 620 rlineto
            endchar
          </CharString>
          <CharString index="230">
            rmoveto
            82 79 58 82 18 hvcurveto
            83 18 -55 57 -82 hhcurveto
            15 callsubr
            450 hmoveto
            3 callsubr
            19 -56 57 -81 hhcurveto
            15 callsubr
            endchar
          </CharString>
          <CharString index="231">
            rmoveto
            416 -1 -325 199 -448 hhcurveto
            155 callsubr
            -193 -910 rcurveline
            -18 -84 -24 -18 -142 -23 142 callsubr
            -516 73 164 callsubr
            -68 callgsubr
            return
          </CharString>
          <CharString index="232">
            -48 -70 -15 hvcurveto
            -70 -15 52 -49 79 hhcurveto
            428 hmoveto
            78 74 49 70 14 hvcurveto
            70 16 -53 48 -79 hhcurveto
            -21 hlineto
            -78 -74 -48 -70 -15 hvcurveto
            -70 -14 52 -49 78 hhcurveto
            endchar
          </CharString>
          <CharString index="233">
            rmoveto
            246 177 102 173 30 hvcurveto
            -167 hlineto
            -56 -19 -98 -38 -130 hhcurveto
            -130 -83 39 55 6 hvcurveto
            -168 hlineto
            -173 -44 134 -102 246 hhcurveto
            endchar
          </CharString>
          <CharString index="234">
            1411 799 1066 rmoveto
            -58 callsubr
            -79 callsubr
            137 646 rlineto
            129 28 72 61 -79 callgsubr
            -74 callsubr
            return
          </CharString>
          <CharString index="235">
            rmoveto
            342 240 177 263 164 -106 95 -134 -160 -94 -133 -161 -7 hvcurveto
            98 -10 68 -43 -76 vvcurveto
            -81 -88 -52 -129 -5 vhcurveto
            endchar
          </CharString>
          <CharString index="236">
            645 581 rmoveto
            298 157 231 267 -2 hvcurveto
            206 -123 181 -236 -298 -157 108 callgsubr
            return
          </CharString>
          <CharString index="237">
            rmoveto
            240 178 120 204 36 hvcurveto
            -163 hlineto
            -67 -21 -97 99 callsubr
            7 hvcurveto
            -163 89 callsubr
            endchar
          </CharString>
          <CharString index="238">
            143 -28 callgsubr
            132 -23 17 -18 -18 -84 rlinecurve
            -186 -875 -67 -314 -100 -126 52 callgsubr
            endchar
          </CharString>
          <CharString index="239">
            16 500 494 30 140 -873 0 -112 -408 rlineto
            131 hlineto
            80 29 24 15 71 hhcurveto
            278 hlineto
            return
          </CharString>
          <CharString index="240">
            1560 rmoveto
            19 callsubr
            -82 63 -67 88 hvcurveto
            391 hmoveto
            204 callsubr
            return
          </CharString>
          <CharString index="241">
            1187 rmoveto
            244 183 169 -183 170 0 -128 427 -331 0 return
          </CharString>
          <CharString index="242">
            rmoveto
            149 -105 146 -264 34 vhcurveto
            241 21 191 212 callsubr
            endchar
          </CharString>
          <CharString index="243">
            -36 -19 -76 -42 -45 11 14 -38 hvcurveto
            -25 -118 rlineto
            -21 46 75 -18 95 hhcurveto
            endchar
          </CharString>
          <CharString index="244">
            -60 hhcurveto
            -147 -108 -107 -170 -36 hvcurveto
            165 hlineto
            51 11 29 24 46 hhcurveto
            return
          </CharString>
          <CharString index="245">
            8 10 -33 hvcurveto
            -42 13 rlineto
            16 -51 -53 15 -62 hhcurveto
            -150 -107 -91 -145 return
          </CharString>
          <CharString index="246">
            -82 81 -108 -114 -92 -89 -109 1 vhcurveto
            -99 82 -80 109 vhcurveto
            endchar
          </CharString>
          <CharString index="247">
            215 1014 33 -1 rlineto
            202 -6 37 -30 -222 vvcurveto
            131 hlineto
            return
          </CharString>
          <CharString index="248">
            0 724 1596 rmoveto
            49 230 -813 -202 -28 -131 rlineto
            return
          </CharString>
          <CharString index="249">
            -31 -142 rcurveline
            674 hlineto
            616 452 324 505 -1 hvcurveto
            return
          </CharString>
          <CharString index="250">
            rmoveto
            -295 -10 hlineto
            193 -324 rlineto
            143 88 callgsubr
            return
          </CharString>
          <CharString index="251">
            -2444 rmoveto
            288 hlineto
            519 2444 rlineto
            -288 hlineto
            return
          </CharString>
          <CharString index="252">
            65 265 33 hvcurveto
            -144 hlineto
            -86 -14 -25 -24 -33 hhcurveto
            -21 -19 return
          </CharString>
          <CharString index="253">
            -49 -46 -47 -102 -60 hvcurveto
            143 hlineto
            177 -30 callgsubr
            return
          </CharString>
          <CharString index="254">
            rmoveto
            411 84 callsubr
            -89 0 -382 -156 rlineto
            endchar
          </CharString>
          <CharString index="255">
            1891 rmoveto
            771 -87 24 111 -754 171 rlineto
            return
          </CharString>
          <CharString index="256">
            -170 0 128 -427 332 0 302 427 rlineto
            return
          </CharString>
          <CharString index="257">
            162 hlineto
            10 28 5 38 41 vvcurveto
            182 -148 135 return
          </CharString>
          <CharString index="258">
            30 137 -301 184 -88 0 -378 -184 rlineto
            endchar
          </CharString>
          <CharString index="259">
            28 30 -8 -11 33 hvcurveto
            42 -13 rlineto
            -16 51 54 -14 61 hhcurveto
            return
          </CharString>
          <CharString index="260">
            1593 rmoveto
            674 hlineto
            45 208 rlineto
            -674 hlineto
            return
          </CharString>
          <CharString index="261">
            1261 rmoveto
            749 hlineto
            49 230 rlineto
            -749 hlineto
            return
          </CharString>
          <CharString index="262">
            -660 hlineto
            -30 -142 rlineto
            133 -23 16 -18 -18 -84 return
          </CharString>
          <CharString index="263">
            -181 191 -323 -362 -300 -264 -356 return
          </CharString>
          <CharString index="264">
            808 0 30 142 -144 21 -17 20 18 84 rlinecurve
            return
          </CharString>
          <CharString index="265">
            221 132 89 134 103 -89 74 -138 13 hvcurveto
            return
          </CharString>
          <CharString index="266">
            130 23 rlinecurve
            31 142 -499 0 -30 -142 rlineto
            return
          </CharString>
          <CharString index="267">
            109 256 124 hvcurveto
            -96 86 rlineto
            -50 -71 -58 -32 return
          </CharString>
          <CharString index="268">
            hhcurveto
            -27 -29 9 12 -33 hvcurveto
            -40 16 rlineto
            19 -48 -52 16 return
          </CharString>
          <CharString index="269">
            rmoveto
            156 182 80 85 66 hvcurveto
            30 142 rlineto
            -30 return
          </CharString>
          <CharString index="270">
            68 23 108 rlinecurve
            108 23 -91 72 -160 hhcurveto
            return
          </CharString>
          <CharString index="271">
            rmoveto
            -444 -239 -276 -284 -17 vhcurveto
            -42 -2 return
          </CharString>
          <CharString index="272">
            1887 rmoveto
            -217 -134 -164 134 return
          </CharString>
          <CharString index="273">
            rmoveto
            -94 84 -75 106 111 92 79 97 31 -9 30 -15 26 vhcurveto
            2 15 14 1 15 hhcurveto
            127 82 -75 -214 -35 hvcurveto
            -1 -1 -162 -13 rlineto
            -353 -30 -186 -123 -197 vvcurveto
            -171 137 -97 176 189 158 103 185 43 vhcurveto
            -197 67 169 -91 177 hhcurveto
            191 154 74 97 76 hvcurveto
            30 143 rlineto
            -36 -50 -83 -25 -82 hhcurveto
            -133 -99 75 177 -20 hvcurveto
            441 25 128 137 163 vvcurveto
            167 -151 106 -234 -134 -119 -37 -73 -98 vhcurveto
            73 -83 -117 37 -153 hhcurveto
            -289 -176 -117 -162 hvcurveto
            1146 105 rmoveto
            51 24 -36 -57 -83 -70 -94 -167 -21 hvcurveto
            178 13 65 113 84 hhcurveto
            -854 -588 rmoveto
            77 54 52 160 19 vhcurveto
            58 7 -5 -31 rlineto
            -159 -27 -60 -68 -86 hhcurveto
            -55 -39 37 66 hvcurveto
            endchar
          </CharString>
          <CharString index="274">
            rmoveto
            -1264 hlineto
            -737 -1071 -129 -187 -48 -30 -107 -14 rlinecurve
            -30 -142 514 0 31 142 -124 21 -14 45 109 164 rlinecurve
            100 152 427 0 -47 -235 -20 -107 -26 -21 -153 -19 rlinecurve
            -30 -142 1276 0 107 457 rlineto
            -129 hlineto
            -115 -248 -45 -29 -210 -9 rrcurveto
            -211 -8 96 490 rlineto
            128 hlineto
            66 17 -24 -165 -5 hvcurveto
            127 hlineto
            108 541 rlineto
            -127 hlineto
            -162 -59 -28 -27 -67 hhcurveto
            -128 hlineto
            91 465 183 -6 223 -8 24 -29 15 -215 rlinecurve
            130 hlineto
            -1117 257 rmoveto
            75 hlineto
            -115 -583 rlineto
            -346 hlineto
            endchar
          </CharString>
          <CharString index="275">
            rmoveto
            124 109 63 77 57 hvcurveto
            30 142 rlineto
            -14 -21 -27 -9 -30 hhcurveto
            -46 -44 31 108 -36 hvcurveto
            -113 335 28 23 165 131 94 50 111 22 rlinecurve
            24 113 -538 0 -24 -113 129 -18 21 -28 -112 -94 rlinecurve
            -273 -227 200 941 -83 callgsubr
            47 callsubr
            -253 -1194 433 0 87 409 57 43 49 -171 rlineto
            -203 59 89 -98 152 hhcurveto
            return
          </CharString>
          <CharString index="276">
            -544 -65 -310 -18 -84 -25 -20 -154 -21 rlinecurve
            -30 -142 807 0 30 142 -144 21 -17 20 18 84 rlinecurve
            65 308 436 573 87 114 27 23 117 17 rlinecurve
            30 142 -492 0 -30 -142 133 -17 5 -29 -92 -128 rlinecurve
            -260 -361 -109 361 -38 128 18 29 140 17 rlinecurve
            31 142 -797 0 -30 -142 104 -17 24 -27 return
          </CharString>
          <CharString index="277">
            rmoveto
            -615 hlineto
            -30 -142 137 -16 4 -35 -23 -104 rlinecurve
            -193 -877 -19 -85 -24 -19 -129 -23 rlinecurve
            -31 -143 499 0 29 143 -136 26 -14 14 18 88 rlinecurve
            144 719 367 -990 453 0 260 1175 20 86 22 18 159 callsubr
            137 -26 13 -15 -17 -86 -142 -709 rcurveline
            return
          </CharString>
          <CharString index="278">
            1518 rmoveto
            147 108 107 170 36 hvcurveto
            -165 hlineto
            -51 -11 -29 -24 -46 hhcurveto
            -27 -29 9 12 -32 hvcurveto
            -40 15 rlineto
            19 -49 -52 16 -60 hhcurveto
            72 callgsubr
            27 29 -9 -12 32 hvcurveto
            40 -16 rlineto
            -18 49 52 -17 60 hhcurveto
            return
          </CharString>
          <CharString index="279">
            rmoveto
            147 108 106 170 36 hvcurveto
            -165 hlineto
            -50 -11 -29 -25 -46 hhcurveto
            -26 -30 9 12 -32 hvcurveto
            -40 16 rlineto
            19 -49 -52 16 137 callsubr
            27 29 -8 -13 32 hvcurveto
            41 -15 rlineto
            -19 48 52 -16 60 hhcurveto
            endchar
          </CharString>
          <CharString index="280">
            1393 rmoveto
            -143 133 -90 180 -19 callgsubr
            -133 90 -180 -238 -122 -120 -128 vhcurveto
            247 -6 rmoveto
            74 49 46 55 45 30 -36 -57 -74 -49 -46 -55 -46 -29 36 57 vhcurveto
            return
          </CharString>
          <CharString index="281">
            8 hvcurveto
            -161 hlineto
            -94 -17 -95 -53 -119 hhcurveto
            -33 callgsubr
            -161 hlineto
            -11 -27 -5 -38 -41 vvcurveto
            -182 148 -136 200 vhcurveto
            return
          </CharString>
          <CharString index="282">
            0 103 175 -82 -432 -9 -45 -13 -14 -88 -10 rlinecurve
            -20 -94 491 0 20 94 -83 10 -7 14 9 45 rlinecurve
            101 518 9 45 12 14 89 9 rlinecurve
            20 94 -454 0 -212 -423 rlineto
            return
          </CharString>
          <CharString index="283">
            rmoveto
            -127 3 135 -81 180 hhcurveto
            238 120 110 106 -5 hvcurveto
            128 -3 -135 80 -180 hhcurveto
            -238 -120 -110 -106 5 hvcurveto
            247 -5 rmoveto
            58 -3 46 33 55 hhcurveto
            return
          </CharString>
          <CharString index="284">
            rmoveto
            236 99 76 82 99 hvcurveto
            30 140 rlineto
            -39 -69 -121 -38 -117 hhcurveto
            -90 -50 29 60 55 28 37 109 35 hvcurveto
            52 16 rlineto
            217 70 114 91 198 vvcurveto
            184 return
          </CharString>
          <CharString index="285">
            -45 -49 -86 -24 -81 hhcurveto
            -112 -94 54 128 -38 hvcurveto
            64 19 rlineto
            311 94 186 88 208 vvcurveto
            152 -154 106 -232 -353 -286 -251 -365 return
          </CharString>
          <CharString index="286">
            rmoveto
            118 102 74 callsubr
            -22 11 16 -21 hvcurveto
            -29 22 rlineto
            42 -56 -59 26 -69 hhcurveto
            -117 -102 -73 -290 -36 hvcurveto
            151 hlineto
            98 15 28 26 38 hhcurveto
            24 return
          </CharString>
          <CharString index="287">
            122 633 rlineto
            87 55 115 51 139 hhcurveto
            55 48 -7 -15 40 hvcurveto
            8 30 13 53 62 vvcurveto
            110 -41 72 -96 -121 -79 -111 -224 -115 vhcurveto
            return
          </CharString>
          <CharString index="288">
            1145 29 136 -1142 0 -98 -422 rlineto
            130 hlineto
            100 210 50 35 211 8 rrcurveto
            193 6 -904 -1145 -29 -136 rlineto
            return
          </CharString>
          <CharString index="289">
            131 -23 18 -18 -18 -84 rlinecurve
            -187 -875 -67 -314 -100 -126 -240 -143 rlinecurve
            38 -113 496 154 256 154 82 380 rlinecurve
            return
          </CharString>
          <CharString index="290">
            247 hlineto
            30 140 111 0 41 195 110 callgsubr
            -157 rlineto
            385 hlineto
            42 195 rmoveto
            -207 hlineto
            265 272 rlineto
            endchar
          </CharString>
          <CharString index="291">
            33 152 -249 0 33 139 -437 -30 -23 -109 -149 0 -32 -152 148 0 -250 -1183 434 -59 callsubr
            return
          </CharString>
          <CharString index="292">
            hhcurveto
            187 155 43 67 100 hvcurveto
            81 381 -132 -1 rlineto
            -194 -73 -125 -107 -133 hhcurveto
            -174 -109 136 250 hvcurveto
            endchar
          </CharString>
          <CharString index="293">
            1618 rmoveto
            -135 -97 -87 callgsubr
            30 56 15 54 hhcurveto
            82 45 -29 -53 -59 -51 -55 -116 -70 hvcurveto
            165 hlineto
            205 80 return
          </CharString>
          <CharString index="294">
            158 231 268 -2 hvcurveto
            206 -123 180 -237 -297 -158 -231 -267 2 vhcurveto
            -206 123 -181 return
          </CharString>
          <CharString index="295">
            -19 -88 -22 -18 -132 -19 rlinecurve
            -31 -142 -68 callsubr
            -132 19 -17 18 19 88 rlinecurve
            return
          </CharString>
          <CharString index="296">
            rmoveto
            201 65 292 163 54 30 -24 -29 8 vhcurveto
            -90 -419 rlineto
            -119 -25 -55 -71 -65 hhcurveto
            -50 -35 44 125 hvcurveto
            endchar
          </CharString>
          <CharString index="297">
            -128 -581 -46 callgsubr
            -1163 -741 rmoveto
            21 callgsubr
            1186 -724 rmoveto
            -8 callgsubr
            return
          </CharString>
          <CharString index="298">
            1593 729 267 rmoveto
            79 374 88 0 187 -641 511 0 29 136 -59 29 218 callsubr
            return
          </CharString>
          <CharString index="299">
            38 5 28 hhcurveto
            47 45 -18 -36 -36 -37 -19 -76 -42 -44 11 14 -38 hvcurveto
            -25 -118 rlineto
            -21 45 75 -18 95 hhcurveto
            endchar
          </CharString>
          <CharString index="300">
            0 212 997 19 88 22 18 132 19 96 callsubr
            132 -19 17 -18 -19 -88 rlinecurve
            endchar
          </CharString>
          <CharString index="301">
            1034 798 1066 rmoveto
            -567 85 callsubr
            -79 callsubr
            180 callsubr
            return
          </CharString>
          <CharString index="302">
            hhcurveto
            -21 hlineto
            -78 -74 -49 -70 -15 hvcurveto
            -70 -14 52 101 callgsubr
            -62 callsubr
            -49 -70 return
          </CharString>
          <CharString index="303">
            454 1177 rmoveto
            -193 -910 rlineto
            -19 -88 -24 -18 -141 -19 -30 -142 rcurveline
            return
          </CharString>
          <CharString index="304">
            415 rlineto
            12 vlineto
            125 hmoveto
            -207 -427 198 0 408 415 rlineto
            12 vlineto
            return
          </CharString>
          <CharString index="305">
            165 158 -165 158 0 -122 384 -308 0 -278 -384 rlineto
            endchar
          </CharString>
          <CharString index="306">
            0 -122 -117 -22 -93 callgsubr
            return
          </CharString>
          <CharString index="307">
            133 -23 16 -18 -18 -84 rlinecurve
            -101 callsubr
            -142 -23 rlinecurve
            -31 -142 return
          </CharString>
          <CharString index="308">
            29 -73 hhcurveto
            -127 -110 -81 -322 -41 hvcurveto
            163 hlineto
            108 17 30 30 return
          </CharString>
          <CharString index="309">
            1612 rmoveto
            -235 -162 -144 -280 -8 hvcurveto
            161 hlineto
            94 17 return
          </CharString>
          <CharString index="310">
            211 79 350 137 59 34 -56 -123 -211 -77 -350 -138 return
          </CharString>
          <CharString index="311">
            90 74 74 90 83 -63 68 -86 -91 -74 -74 -92 hvcurveto
            -82 -1 64 -67 87 hhcurveto
            return
          </CharString>
          <CharString index="312">
            77 253 93 hhcurveto
            46 25 -46 -106 3 hvcurveto
            -237 2 -77 -253 -93 hhcurveto
            return
          </CharString>
          <CharString index="313">
            -22 -74 -56 -44 15 14 -30 hvcurveto
            -30 -128 rlineto
            -29 59 77 -21 90 hhcurveto
            endchar
          </CharString>
          <CharString index="314">
            rmoveto
            -310 -39 152 -175 266 hhcurveto
            175 127 81 166 59 hvcurveto
            -124 9 110 -123 201 hhcurveto
            363 225 300 352 35 hvcurveto
            285 28 -98 166 -178 hhcurveto
            -154 -101 -153 -182 16 hvcurveto
            188 -19 75 -122 -18 -147 rrcurveto
            -147 -18 -98 -91 -111 hhcurveto
            -143 -79 115 316 87 hvcurveto
            41 151 -328 0 -39 -185 rlineto
            -316 -67 -54 -81 -90 hhcurveto
            -101 -25 80 170 20 hvcurveto
            24 197 88 185 123 129 rrcurveto
            -66 100 -292 -49 -272 -244 -41 -325 rlinecurve
            endchar
          </CharString>
          <CharString index="315">
            -156 231 hhcurveto
            167 131 97 161 91 hvcurveto
            -4 -13 -3 -25 -17 vvcurveto
            -131 -4 77 -66 133 hhcurveto
            133 139 60 84 75 hvcurveto
            30 142 rlineto
            -18 -32 -29 -10 -35 hhcurveto
            -52 -18 35 82 17 hvcurveto
            126 598 rlineto
            -3 19 22 -1 23 hhcurveto
            160 121 84 149 116 -75 85 -97 47 hvcurveto
            -121 hlineto
            8 -19 7 -32 -36 vvcurveto
            -159 -126 -128 -342 -41 vhcurveto
            -148 -18 -28 -136 50 -19 rlineto
            53 -21 12 -16 -14 -60 -74 -338 rcurveline
            -128 -28 -68 -58 -60 hhcurveto
            -56 -41 45 95 19 hvcurveto
            return
          </CharString>
          <CharString index="316">
            rmoveto
            180 119 92 143 94 hvcurveto
            -150 26 65 -80 146 hhcurveto
            90 103 53 44 46 hvcurveto
            31 145 rlineto
            -6 -9 -29 -6 -23 hhcurveto
            -77 -51 17 220 -47 hvcurveto
            -13 62 353 542 rlineto
            -387 hlineto
            -3 -12 -47 -120 -45 -117 rrcurveto
            166 -35 -93 110 -200 hhcurveto
            -294 -204 -231 -349 -44 hvcurveto
            -339 -45 172 -184 221 hhcurveto
            101 569 rmoveto
            217 25 57 106 81 hhcurveto
            70 23 -90 -269 15 hvcurveto
            3 -63 rlineto
            -143 -71 -65 -56 -66 hhcurveto
            -75 -23 92 206 26 hvcurveto
            endchar
          </CharString>
          <CharString index="317">
            151 -41 145 -84 116 hvcurveto
            172 159 -105 115 -174 -161 rlineto
            96 -117 -162 58 -210 hhcurveto
            -21 callgsubr
            -5 -153 42 -146 86 -117 rrcurveto
            -167 -154 106 -115 170 157 rlineto
            -94 118 163 -57 208 hhcurveto
            129 1327 rmoveto
            98 67 -65 -156 24 hvcurveto
            -544 -501 rlineto
            364 12 139 358 204 hhcurveto
            -157 -1144 rmoveto
            -98 -67 64 154 -24 hvcurveto
            544 501 rlineto
            -363 -13 -140 -356 -202 hhcurveto
            endchar
          </CharString>
          <CharString index="318">
            rmoveto
            360 295 266 354 107 -24 94 -48 75 hvcurveto
            128 113 -99 112 -130 -116 rlineto
            61 -82 -109 34 -135 hhcurveto
            -360 -295 -266 -354 -109 26 -95 49 -77 hvcurveto
            -118 -104 99 -112 122 108 rlineto
            -58 81 108 -33 132 hhcurveto
            139 923 rmoveto
            54 34 -43 -94 8 hvcurveto
            -304 -271 rlineto
            195 26 72 213 110 hhcurveto
            -122 -745 rmoveto
            -52 -34 40 90 -9 hvcurveto
            302 269 rlineto
            -193 -27 -71 -206 -109 hhcurveto
            endchar
          </CharString>
          <CharString index="319">
            107 1 198 rrcurveto
            213 -197 128 -455 vhcurveto
            -680 hlineto
            -30 -142 rlineto
            133 -23 16 -17 -18 -87 -193 -908 rcurveline
            -18 -84 -24 -18 -142 -23 -30 -142 rcurveline
            686 hlineto
            563 325 168 280 hvcurveto
            -418 626 rmoveto
            -152 -109 -93 -166 2 vhcurveto
            -81 hlineto
            96 450 42 -1 rlineto
            131 -4 87 -66 -136 vvcurveto
            -88 -633 rmoveto
            -173 -128 -104 -240 -2 vhcurveto
            -44 hlineto
            110 506 80 -2 rlineto
            118 -2 104 -69 -154 vvcurveto
            return
          </CharString>
          <CharString index="320">
            rmoveto
            -114 86 -95 144 195 151 121 307 233 vhcurveto
            575 759 84 111 29 21 126 17 rlinecurve
            31 142 -523 0 -30 -142 152 -18 0 -18 -78 -111 rlinecurve
            -298 -426 -131 426 -33 109 9 20 161 18 rlinecurve
            30 142 -815 0 -30 -142 119 -17 19 -24 38 -108 rlinecurve
            300 -850 -49 -64 -45 -46 -52 -29 rlinecurve
            3 1 3 3 vvcurveto
            121 -88 82 -106 -117 -88 -90 -111 vhcurveto
            endchar
          </CharString>
          <CharString index="321">
            rmoveto
            245 216 87 129 121 hvcurveto
            21 143 rlineto
            -61 -87 -147 -46 -147 hhcurveto
            -141 -72 43 62 90 89 30 150 hvcurveto
            77 244 -66 hlineto
            -174 -31 48 57 64 61 55 155 56 51 -7 -13 43 hvcurveto
            -23 -27 -14 -36 -37 vvcurveto
            -84 1 58 -64 104 hhcurveto
            92 65 73 88 130 -118 135 -351 -354 -226 -129 -202 -103 62 -87 146 -29 hvcurveto
            -170 -25 -141 -92 -159 vvcurveto
            -172 157 -105 292 vhcurveto
            endchar
          </CharString>
          <CharString index="322">
            716 1192 rmoveto
            2 -98 -155 -17 -118 -2 -21 -105 rcurveline
            2 17 15 1 30 hhcurveto
            82 85 -25 -92 hvcurveto
            -104 2 -78 -51 -77 hhcurveto
            -25 -24 4 8 -21 hvcurveto
            18 19 11 25 28 vvcurveto
            62 -45 43 -63 -66 -44 83 callgsubr
            -2 88 -65 70 -116 35 132 12 110 67 -2 113 rrcurveto
            140 -149 64 -140 -169 -148 -90 -180 -56 vhcurveto
            82 -30 rlineto
            78 41 58 40 79 hhcurveto
            83 46 -42 -49 hvcurveto
            return
          </CharString>
          <CharString index="323">
            rmoveto
            -7 -37 -138 -30 -28 -130 145 0 -123 -822 -27 -180 -41 -93 -51 -43 rlinecurve
            3 13 2 13 14 vvcurveto
            93 -69 77 -86 -94 -76 -75 -99 -133 109 -94 163 314 227 224 734 125 vhcurveto
            64 371 255 0 41 189 -276 -9 11 84 24 175 51 84 80 13 86 callgsubr
            -140 103 -225 -298 -186 -190 -312 -58 vhcurveto
            endchar
          </CharString>
          <CharString index="324">
            435 hlineto
            129 616 rlineto
            190 39 76 30 50 hhcurveto
            69 26 -63 -91 -19 hvcurveto
            -3 -16 -232 -1096 -6 -30 rrcurveto
            450 hlineto
            228 1153 rlineto
            260 51 -104 124 -214 hhcurveto
            -177 -121 -87 -172 -88 hvcurveto
            163 7 -61 89 -183 hhcurveto
            -101 -106 -30 -39 -83 hvcurveto
            -29 -135 rlineto
            2 10 9 2 19 hhcurveto
            65 40 -36 -86 -17 hvcurveto
            -3 -17 -151 -714 -5 -17 rrcurveto
            endchar
          </CharString>
          <CharString index="325">
            -18 34 -74 234 rlinecurve
            -174 548 92 80 218 188 59 30 148 23 rlinecurve
            30 142 -584 0 -30 -142 116 -16 17 -39 -104 -104 rlinecurve
            -331 -330 -84 0 77 364 18 84 23 21 125 20 rlinecurve
            30 142 -764 0 -30 -142 132 -23 16 -18 -18 -84 rlinecurve
            -101 callsubr
            -94 callsubr
            764 0 30 142 -117 20 -13 21 18 84 rlinecurve
            return
          </CharString>
          <CharString index="326">
            rmoveto
            121 104 66 74 60 hvcurveto
            31 143 rlineto
            -15 -29 -22 -8 -35 hhcurveto
            -61 -49 32 88 -36 hvcurveto
            -128 310 15 18 20 23 17 20 16 19 rlinecurve
            -46 35 52 -29 61 hhcurveto
            116 99 93 115 -2 hvcurveto
            106 -2 -81 88 -115 hhcurveto
            -118 -61 -67 -128 -98 hvcurveto
            -271 -361 116 545 -591 -70 callgsubr
            96 446 74 -219 rlineto
            -165 51 86 -82 166 hhcurveto
            endchar
          </CharString>
          <CharString index="327">
            rlineto
            61 -19 18 -15 1 -43 30 -772 rcurveline
            355 hlineto
            89 102 102 156 78 159 6 -417 rcurveline
            345 hlineto
            237 197 369 436 232 vvcurveto
            125 -95 87 -122 -118 -96 -83 -118 -99 74 -84 96 -15 vhcurveto
            -55 -159 -107 -150 -133 -126 rrcurveto
            -5 824 -404 -63 2 -148 -11 -222 -88 -176 -113 -159 rlinecurve
            return
          </CharString>
          <CharString index="328">
            -175 -143 -112 -71 -121 -71 vhcurveto
            146 628 -83 callgsubr
            47 callsubr
            -253 -1194 251 0 152 122 rlineto
            -80 38 90 -68 151 hhcurveto
            313 247 295 414 hvcurveto
            -442 -16 rmoveto
            -201 -65 -292 -163 -54 -30 24 29 -8 vhcurveto
            90 419 rlineto
            119 25 55 70 65 hhcurveto
            50 35 -43 -125 hvcurveto
            return
          </CharString>
          <CharString index="329">
            362 300 258 349 148 -49 126 -94 89 vhcurveto
            -10 40 45 -5 47 hhcurveto
            223 147 87 155 124 -74 89 -98 47 hvcurveto
            -121 hlineto
            8 -19 7 -32 -33 vvcurveto
            -167 -133 -135 -162 vhcurveto
            -86 -75 32 -127 hhcurveto
            -362 -302 -260 -360 hvcurveto
            428 -122 rmoveto
            203 callsubr
            -60 -34 55 124 vhcurveto
            return
          </CharString>
          <CharString index="330">
            rmoveto
            101 103 29 41 48 hvcurveto
            29 137 rlineto
            -10 -15 -25 -7 -28 hhcurveto
            -64 -44 60 97 51 13 45 19 31 hvcurveto
            316 43 248 247 324 vvcurveto
            291 156 callsubr
            -256 140 -178 252 -40 vhcurveto
            -147 -73 -73 -88 -105 vvcurveto
            -117 109 -93 184 vhcurveto
            57 649 rmoveto
            -60 -34 55 124 203 callsubr
            hvcurveto
            endchar
          </CharString>
          <CharString index="331">
            rmoveto
            -586 -72 -28 -136 76 -23 rlineto
            38 -11 14 -20 -12 -57 -62 -294 rcurveline
            -311 -66 160 -170 372 hhcurveto
            374 285 163 245 212 -180 99 -250 -91 -79 -11 -14 -47 hvcurveto
            -62 -306 rmoveto
            29 143 rlineto
            8 21 33 7 32 hhcurveto
            100 41 -65 -97 -124 -64 -98 -103 -78 -48 50 176 37 hvcurveto
            endchar
          </CharString>
          <CharString index="332">
            64 -20 14 -16 3 -51 rlinecurve
            57 -939 -101 -71 -180 -100 -143 -65 rlinecurve
            -47 453 vlineto
            63 63 61 64 57 63 87 93 83 94 77 94 rrcurveto
            290 350 197 341 163 vvcurveto
            125 -95 87 -121 -119 -96 -83 -118 -106 84 -88 105 -6 vhcurveto
            -61 -186 -131 -184 -133 -161 rrcurveto
            return
          </CharString>
          <CharString index="333">
            rmoveto
            102 84 29 41 48 hvcurveto
            28 137 rlineto
            -10 -14 -21 -7 -26 hhcurveto
            -65 -43 62 92 47 10 41 16 29 hvcurveto
            487 17 300 362 451 vvcurveto
            -107 callsubr
            vhcurveto
            -9 -320 190 -289 389 -59 rrcurveto
            -148 -72 -80 -91 -100 vvcurveto
            -122 122 -86 173 vhcurveto
            56 643 -47 callgsubr
          </CharString>
          <CharString index="334">
            146 -1097 403 0 616 1094 93 166 27 24 121 18 rlinecurve
            30 142 -509 0 -31 -142 139 -23 14 -30 -85 -156 rlinecurve
            -401 -743 -80 743 -17 157 26 29 149 23 rlinecurve
            30 142 -798 0 -30 -142 114 -18 20 -24 23 -163 rlinecurve
            return
          </CharString>
          <CharString index="335">
            -341 -173 9 -91 84 -8 213 rlinecurve
            -127 hlineto
            -49 -365 97 -60 148 -45 166 -10 rlinecurve
            124 1076 rmoveto
            -4 75 47 53 92 16 rrcurveto
            -56 -263 -53 38 -23 30 -3 51 rlinecurve
            165 -746 rmoveto
            2 -76 -50 -56 -95 -18 rrcurveto
            59 277 66 -44 15 -31 3 -52 rlinecurve
            endchar
          </CharString>
          <CharString index="336">
            795 0 30 142 rlineto
            -143 21 -18 20 18 84 79 375 rcurveline
            117 hlineto
            68 16 -24 -165 -6 hvcurveto
            122 hlineto
            115 540 rlineto
            -123 hlineto
            -162 -62 -26 -26 -69 hhcurveto
            -117 hlineto
            101 476 155 -5 224 -8 31 -28 12 -218 rlinecurve
            130 hlineto
            endchar
          </CharString>
          <CharString index="337">
            6 -35 -69 -147 rlinecurve
            -334 -716 -38 701 -9 160 15 26 146 23 rlinecurve
            31 142 -755 0 -31 -142 130 -12 7 -35 -69 -147 rlinecurve
            -339 -717 -34 702 -8 160 14 26 147 -28 callgsubr
            109 -17 23 -23 15 -165 rlinecurve
            return
          </CharString>
          <CharString index="338">
            1617 533 rmoveto
            239 -202 140 -329 vhcurveto
            255 callsubr
            30 142 -806 0 -30 -142 rlineto
            131 -23 17 -17 -18 -85 -193 -910 rcurveline
            -18 -85 -24 -17 -142 -23 -30 -142 rcurveline
            845 hlineto
            413 312 201 332 hvcurveto
            return
          </CharString>
          <CharString index="339">
            rmoveto
            375 244 272 342 288 -211 201 -325 -375 -244 -272 -341 -289 211 -201 325 hvcurveto
            -12 182 rmoveto
            -67 -25 60 127 193 70 360 129 67 25 -60 -127 -193 -70 -360 -129 hvcurveto
            endchar
          </CharString>
          <CharString index="340">
            -527 -65 -30 -141 47 -13 rlineto
            61 -19 17 -15 2 -43 38 -772 rcurveline
            356 hlineto
            234 197 372 436 232 vvcurveto
            125 -95 87 -121 -119 -95 -83 -118 -101 76 -85 99 -12 vhcurveto
            -62 -163 -115 -150 -123 -121 rrcurveto
            return
          </CharString>
          <CharString index="341">
            95 -109 -204 -333 -120 -205 -166 -61 vhcurveto
            -77 -375 667 0 135 415 rlineto
            -114 hlineto
            -90 -137 -108 -50 -286 -8 10 50 rcurveline
            355 82 252 259 319 vvcurveto
            304 -240 235 -473 -498 return
          </CharString>
          <CharString index="342">
            0 477 1518 rmoveto
            146 108 107 170 36 hvcurveto
            -164 hlineto
            -51 -11 -29 -24 -46 hhcurveto
            -27 -29 9 12 -33 hvcurveto
            -40 15 rlineto
            19 -48 -52 16 -60 hhcurveto
            72 callgsubr
            26 29 -9 -12 33 hvcurveto
            40 -16 rlineto
            -18 49 51 -17 61 hhcurveto
            return
          </CharString>
          <CharString index="343">
            1187 rmoveto
            224 191 118 238 62 hvcurveto
            -150 35 rlineto
            -148 -45 -113 -85 -130 hhcurveto
            -14 -13 1 2 -12 hvcurveto
            32 30 21 43 49 vvcurveto
            107 -84 73 -96 -124 -72 -92 -115 -145 129 -111 194 vhcurveto
            return
          </CharString>
          <CharString index="344">
            -494 rmoveto
            96 110 31 39 40 hvcurveto
            30 137 rlineto
            -9 -21 -25 -8 -39 hhcurveto
            -63 -47 31 62 74 55 57 112 63 hvcurveto
            118 65 -164 0 -182 -76 rlineto
            -215 -90 -73 -84 -110 vvcurveto
            -97 98 -85 170 vhcurveto
            endchar
          </CharString>
          <CharString index="345">
            124 -22 14 -18 -18 -85 rlinecurve
            -211 -997 -397 0 213 1004 17 83 17 24 124 11 rlinecurve
            30 142 -735 0 -30 -142 116 -12 9 -23 -18 -83 rlinecurve
            -213 -1004 -397 193 callsubr
          </CharString>
          <CharString index="346">
            1614 rmoveto
            -114 71 callgsubr
            83 84 101 94 -74 76 -98 -105 -84 -83 -104 -93 74 -75 100 hvcurveto
            866 hmoveto
            -30 callsubr
            -98 -105 44 callsubr
            return
          </CharString>
          <CharString index="347">
            rmoveto
            107 85 84 100 -1 hvcurveto
            94 -77 76 -101 -108 -86 -83 -103 1 vhcurveto
            -93 77 -75 103 vhcurveto
            482 hmoveto
            107 86 84 100 -1 hvcurveto
            94 -1 -76 76 -102 hhcurveto
            -107 -87 -83 -103 1 hvcurveto
            -93 1 76 -75 103 hhcurveto
            endchar
          </CharString>
          <CharString index="348">
            -157 -107 99 215 219 110 149 134 hvcurveto
            1 hlineto
            -43 -33 -26 -52 -59 vvcurveto
            -104 83 -71 102 112 91 77 117 160 -141 132 -245 -368 -264 -260 -356 return
          </CharString>
          <CharString index="349">
            -443 -55 -129 -614 rlineto
            -115 -25 -52 -64 -74 hhcurveto
            -51 -32 43 86 18 hvcurveto
            150 719 -445 -51 -128 -618 rlineto
            -111 -23 -51 -68 -73 hhcurveto
            -51 -30 47 82 16 hvcurveto
            144 return
          </CharString>
          <CharString index="350">
            1072 67 76 rmoveto
            111 -115 157 159 36 -105 callgsubr
            165 109 256 124 hvcurveto
            -97 86 rlineto
            -50 -71 -57 -32 -49 -78 callgsubr
            -26 132 callsubr
            return
          </CharString>
          <CharString index="351">
            vvcurveto
            168 126 74 125 9 9 0 -1 9 vhcurveto
            -25 -27 -15 -36 -44 vvcurveto
            -98 71 -71 97 100 75 77 100 158 -163 114 -268 -344 -232 -190 -287 -3 vhcurveto
            return
          </CharString>
          <CharString index="352">
            1158 168 279 rmoveto
            84 -57 153 -36 174 -8 rrcurveto
            -37 -178 108 0 37 176 rlineto
            424 9 131 187 177 vvcurveto
            140 -82 99 -198 69 vhcurveto
            return
          </CharString>
          <CharString index="353">
            575 1478 rmoveto
            -127 -61 -77 -123 -7 hvcurveto
            -4 -67 6 -77 16 -138 rrcurveto
            24 -213 84 0 94 172 93 168 48 100 1 82 rlinecurve
            97 1 -57 76 -111 hhcurveto
            return
          </CharString>
          <CharString index="354">
            rmoveto
            -586 -70 -29 -136 65 -19 55 -17 8 -18 -12 -60 rlinecurve
            -138 -655 -54 -253 -38 -80 -184 -102 rlinecurve
            41 -132 377 92 217 140 78 370 rlinecurve
            endchar
          </CharString>
          <CharString index="355">
            0 -30 -142 rlineto
            152 -18 21 -31 -29 -119 -28 -112 -29 -122 -62 -224 -44 -160 -52 -140 -61 -100 rrcurveto
            62 -32 -61 40 -78 hhcurveto
            -117 -88 -92 -113 return
          </CharString>
          <CharString index="356">
            -24 -17 -143 -23 rlinecurve
            -30 -142 812 0 30 142 -161 24 -17 16 18 85 rlinecurve
            215 1014 156 -5 227 -9 28 -28 12 -217 rlinecurve
            130 hlineto
            endchar
          </CharString>
          <CharString index="357">
            -87 -406 rcurveline
            -199 -43 79 -166 222 hhcurveto
            143 138 68 168 81 hvcurveto
            -134 2 93 -102 194 hhcurveto
            146 144 88 172 77 hvcurveto
            -4 -15 -5 -28 return
          </CharString>
          <CharString index="358">
            rmoveto
            -145 -429 236 0 323 413 rlineto
            16 vlineto
            return
          </CharString>
          <CharString index="359">
            rmoveto
            -145 -428 236 0 323 412 rlineto
            16 vlineto
            return
          </CharString>
          <CharString index="360">
            1261 rmoveto
            749 hlineto
            50 230 rlineto
            -750 hlineto
            return
          </CharString>
          <CharString index="361">
            -470 -356 -472 245 0 544 438 rlineto
            return
          </CharString>
          <CharString index="362">
            -221 hlineto
            56 265 18 86 31 13 160 26 rlinecurve
            return
          </CharString>
          <CharString index="363">
            -164 -334 159 0 324 324 rlineto
            10 vlineto
            return
          </CharString>
          <CharString index="364">
            -115 226 315 322 167 324 160 return
          </CharString>
          <CharString index="365">
            131 -23 -98 callgsubr
            -25 -17 -141 -23 rlinecurve
            return
          </CharString>
          <CharString index="366">
            82 65 52 76 -2 -24 callgsubr
            2 hvcurveto
            -76 2 return
          </CharString>
          <CharString index="367">
            78 102 71 hvcurveto
            31 143 rlineto
            -46 -52 -86 -23 -72 hhcurveto
            return
          </CharString>
          <CharString index="368">
            76 253 93 hhcurveto
            46 25 -46 -106 3 hvcurveto
            -237 2 return
          </CharString>
          <CharString index="369">
            48 vhcurveto
            20 93 rlineto
            -8 -15 -18 -5 -21 hhcurveto
            -32 -12 20 return
          </CharString>
          <CharString index="370">
            30 -8 -10 34 hvcurveto
            42 -14 rlineto
            -16 50 53 -14 62 hhcurveto
            return
          </CharString>
          <CharString index="371">
            19 43 46 vvcurveto
            95 -70 71 -98 -104 -69 -76 -98 -208 return
          </CharString>
          <CharString index="372">
            -9 rlinecurve
            -20 -94 319 0 20 94 102 callgsubr
            return
          </CharString>
          <CharString index="373">
            -10 -16 21 hvcurveto
            29 -22 rlineto
            -42 56 59 -26 69 hhcurveto
            endchar
          </CharString>
          <CharString index="374">
            -10 -44 -14 -14 -87 -9 rlinecurve
            -20 -94 319 0 20 94 return
          </CharString>
          <CharString index="375">
            -21 -7 -25 hhcurveto
            -66 -43 65 99 59 15 51 22 29 hvcurveto
            return
          </CharString>
          <CharString index="376">
            -34 -37 vvcurveto
            -164 1 138 -122 186 hhcurveto
            endchar
          </CharString>
          <CharString index="377">
            hhcurveto
            146 133 62 82 74 hvcurveto
            30 142 rlineto
            -18 return
          </CharString>
          <CharString index="378">
            rmoveto
            115 94 94 113 105 -82 85 -110 -117 return
          </CharString>
          <CharString index="379">
            rmoveto
            105 457 rlineto
            -131 hlineto
            -115 -254 -54 -24 return
          </CharString>
          <CharString index="380">
            -80 callsubr
            85 84 103 93 -73 76 -101 hvcurveto
            endchar
          </CharString>
          <CharString index="381">
            rlineto
            -143 21 -17 20 18 84 72 342 rcurveline
            16 59 return
          </CharString>
        <CharString name=".notdef">
          2048 -44 -494 rmoveto
          288 hlineto
          519 2444 rlineto
          -288 hlineto
          -109 144 callsubr
          -110 144 callsubr
          -109 144 callsubr
          -110 144 callsubr
          endchar
        </CharString>
        <CharString name=".null">
          0 endchar
        </CharString>
        <CharString name="A">
          1561 1436 347 -96 callsubr
        </CharString>
        <CharString name="AE">
          2101 2304 1444 167 callsubr
        </CharString>
        <CharString name="AEacute">
          2101 1554 -78 callsubr
          -69 callsubr
          371 -440 167 callsubr
        </CharString>
        <CharString name="AEmacron">
          2101 1159 -17 callsubr
          1101 -357 167 callsubr
        </CharString>
        <CharString name="Aacute">
          1561 1134 -78 callsubr
          -69 callsubr
          -77 -1537 -96 callsubr
        </CharString>
        <CharString name="Abreve">
          1561 1113 90 callsubr
          -98 -67 23 callsubr
          24 callsubr
          323 -1217 -96 callsubr
        </CharString>
        <CharString name="Abreveacute">
          1561 1538 -20 callsubr
          332 -293 121 callsubr
        </CharString>
        <CharString name="Abrevecyrillic">
          1561 1060 -35 callgsubr
          66 hvcurveto
          -148 39 rlineto
          -122 -42 -110 -84 -116 hhcurveto
          -10 -11 0 1 -9 hvcurveto
          14 20 9 25 29 vvcurveto
          93 -69 66 -79 -103 -66 -69 -101 -119 93 -104 188 vhcurveto
          376 -1204 -96 callsubr
        </CharString>
        <CharString name="Abrevedotbelow">
          1561 1113 90 callsubr
          -98 -67 23 callsubr
          24 callsubr
          323 -1217 rmoveto
          -28 callsubr
          67 callsubr
          -335 -712 -80 callsubr
          -56 callsubr
        </CharString>
        <CharString name="Abrevegrave">
          1561 748 -21 callsubr
          272 -576 121 callsubr
        </CharString>
        <CharString name="Abrevehookabove">
          1561 1166 2099 rmoveto
          -97 -105 -29 -40 -72 hvcurveto
          -19 -85 rlineto
          14 42 69 12 54 hhcurveto
          93 37 -26 -34 -7 hvcurveto
          -8 -33 -48 -27 -111 -16 rrcurveto
          112 -67 174 29 108 58 19 92 rlinecurve
          91 19 -96 61 -164 hhcurveto
          -105 -570 121 callsubr
        </CharString>
        <CharString name="Abrevetilde">
          1561 1287 1847 rmoveto
          151 107 91 144 30 hvcurveto
          -169 hlineto
          -43 -8 -30 -21 -47 hhcurveto
          -27 -31 8 10 -33 hvcurveto
          -42 14 rlineto
          15 -40 callgsubr
          168 48 callsubr
          28 263 callsubr
          -226 -318 121 callsubr
        </CharString>
        <CharString name="Acaron">
          1561 1339 -35 callsubr
          -14 callsubr
          -77 -1540 -96 callsubr
        </CharString>
        <CharString name="Acircumflex">
          1561 883 -71 callsubr
          63 callsubr
          713 -1203 -96 callsubr
        </CharString>
        <CharString name="Acircumflexacute">
          1561 1533 1891 rmoveto
          42 32 callsubr
          -63 -307 -22 callsubr
          750 -1266 -96 callsubr
        </CharString>
        <CharString name="Acircumflexdotbelow">
          1561 883 -71 callsubr
          63 callsubr
          713 -1203 rmoveto
          -28 callsubr
          67 callsubr
          -335 -712 -80 callsubr
          -56 callsubr
        </CharString>
        <CharString name="Acircumflexgrave">
          1561 744 148 callsubr
          -123 -589 -22 callsubr
          750 -1266 -96 callsubr
        </CharString>
        <CharString name="Acircumflexhookabove">
          1561 1500 -10 callgsubr
          750 -1266 -96 callsubr
        </CharString>
        <CharString name="Acircumflextilde">
          1561 1283 1829 72 callsubr
          -47 hhcurveto
          -27 -31 7 11 -33 -7 callsubr
          83 callsubr
          -12 callsubr
          -621 -332 -22 callsubr
          750 -1266 -96 callsubr
        </CharString>
        <CharString name="Acyrillic">
          1561 1436 347 -96 callsubr
        </CharString>
        <CharString name="Adblgrave">
          1561 966 1884 143 callsubr
          178 -1203 -96 callsubr
        </CharString>
        <CharString name="Adieresis">
          1561 900 133 callsubr
          145 -1213 -96 callsubr
        </CharString>
        <CharString name="Adieresismacron">
          1561 742 101 callsubr
          96 -495 rmoveto
          78 74 49 70 14 hvcurveto
          70 16 -53 48 -62 callsubr
          0 callsubr
          78 hhcurveto
          428 14 callsubr
          -15 53 -49 78 hhcurveto
          179 -1201 -96 callsubr
        </CharString>
        <CharString name="Adotaccent">
          1561 1096 -65 callsubr
          -40 callsubr
          340 -1192 -96 callsubr
        </CharString>
        <CharString name="Adotbelow">
          1561 1436 347 rmoveto
          -28 callsubr
          67 callsubr
          -335 -712 -80 callsubr
          -56 callsubr
        </CharString>
        <CharString name="Adotmacron">
          1561 735 1853 -23 callgsubr
          37 callgsubr
          342 -1191 -96 callsubr
        </CharString>
        <CharString name="Agrave">
          1561 1077 40 callsubr
          106 callsubr
          266 -1204 -96 callsubr
        </CharString>
        <CharString name="Ahookabove">
          1561 1149 -38 callsubr
          -18 callsubr
          146 callsubr
          287 -1561 -96 callsubr
        </CharString>
        <CharString name="Ainvertedbreve">
          1561 1102 1935 -11 callgsubr
          9 callgsubr
          334 -1588 -96 callsubr
        </CharString>
        <CharString name="Alphagreek">
          1561 1436 347 -96 callsubr
        </CharString>
        <CharString name="Alphatonosgreek">
          1561 1436 347 rmoveto
          -28 callsubr
          25 callgsubr
          -1103 1097 252 callsubr
          -142 -845 rmoveto
          267 495 53 -495 rlineto
          endchar
        </CharString>
        <CharString name="Amacron">
          1561 739 -17 callsubr
          653 -1454 -96 callsubr
        </CharString>
        <CharString name="Aogonek">
          1561 1153 -50 callgsubr
          -15 -21 -7 -25 hhcurveto
          -65 -44 65 99 59 16 51 22 29 hvcurveto
          278 hlineto
          30 142 -114 18 -20 24 -22 163 rlinecurve
          -28 callsubr
          rlineto
          17 -157 -25 -29 -150 -23 -30 -142 rcurveline
          333 hlineto
          -153 -76 -85 -98 -111 vvcurveto
          -122 121 -86 173 vhcurveto
          -548 1092 rmoveto
          267 495 53 -495 rlineto
          endchar
        </CharString>
        <CharString name="Aring">
          1561 808 32 callgsubr
          -162 -213 15 callgsubr
          405 -1405 -96 callsubr
        </CharString>
        <CharString name="Aringacute">
          1561 1534 26 callgsubr
          16 hvcurveto
          81 18 -100 53 -167 hhcurveto
          -90 hlineto
          -166 -122 -53 -81 -17 hvcurveto
          -81 -17 100 -54 166 hhcurveto
          82 93 rmoveto
          -35 hlineto
          -46 -21 16 26 5 hvcurveto
          26 5 30 16 45 hhcurveto
          35 hlineto
          45 22 -16 -26 -5 hvcurveto
          -26 -5 -31 -16 -44 hhcurveto
          340 -1261 -96 callsubr
        </CharString>
        <CharString name="Aringbelow">
          1561 1436 347 rmoveto
          -28 callsubr
          67 callsubr
          -682 -894 176 callsubr
          63 callgsubr
        </CharString>
        <CharString name="Atilde">
          1561 1218 1561 rmoveto
          107 96 145 callsubr
          -4 callsubr
          110 callsubr
          -48 callsubr
          13 25 24 34 hhcurveto
          20 19 -9 -14 17 hvcurveto
          23 109 callsubr
          218 -1214 -96 callsubr
        </CharString>
        <CharString name="B">
          1600 1622 448 135 callsubr
        </CharString>
        <CharString name="Bdotaccent">
          1600 1126 -65 callsubr
          -40 callsubr
          496 -1091 135 callsubr
        </CharString>
        <CharString name="Bdotbelow">
          14 callgsubr
          -374 -554 -80 callsubr
          -56 callsubr
        </CharString>
        <CharString name="Becyrillic">
          1592 1619 484 rmoveto
          238 -202 139 -329 vhcurveto
          -231 hlineto
          86 417 237 -7 231 -6 30 -30 22 -213 rlinecurve
          136 hlineto
          80 422 -1325 0 -30 -142 rlineto
          133 -23 17 -17 -18 -85 -193 -910 rcurveline
          -18 -85 100 callgsubr
          182 302 hvcurveto
          -492 -1 rmoveto
          -160 -116 -147 -230 -7 vhcurveto
          -71 -3 111 528 rlineto
          91 hlineto
          127 88 -61 -150 hvcurveto
          endchar
        </CharString>
        <CharString name="Betagreek">
          1600 1622 448 135 callsubr
        </CharString>
        <CharString name="Blinebelow">
          14 callgsubr
          -751 -836 80 callsubr
        </CharString>
        <CharString name="C">
          1458 741 541 -45 callsubr
          -16 callsubr
        </CharString>
        <CharString name="Cacute">
          1458 1234 -34 callsubr
          -47 callsubr
          -871 -1343 -45 callsubr
          -16 callsubr
        </CharString>
        <CharString name="Ccaron">
          1458 1439 165 callsubr
          -168 94 callsubr
          -871 -1346 -45 callsubr
          -16 callsubr
        </CharString>
        <CharString name="Ccedilla">
          1458 741 541 -45 callsubr
          -7 -407 254 -214 316 -54 rrcurveto
          -100 -96 -11 callsubr
          -61 callgsubr
          77 -21 90 hhcurveto
          158 callsubr
          52 47 rlineto
          2 2 0 2 185 callsubr
        </CharString>
        <CharString name="Ccedillaacute">
          1458 1234 -34 callsubr
          -47 callsubr
          -871 -1343 -45 callsubr
          -7 -407 254 -214 316 -54 rrcurveto
          -100 -96 -11 callsubr
          -61 callgsubr
          77 -21 90 hhcurveto
          158 callsubr
          52 47 rlineto
          2 2 0 2 185 callsubr
        </CharString>
        <CharString name="Ccircumflex">
          1458 983 -71 callsubr
          -43 callsubr
          -82 -1009 -45 callsubr
          -16 callsubr
        </CharString>
        <CharString name="Cdotaccent">
          1458 1195 21 callsubr
          44 callsubr
          -454 -998 -45 callsubr
          -16 callsubr
        </CharString>
        <CharString name="Checyrillic">
          1718 1105 267 rmoveto
          -19 -89 -32 -12 -159 -24 rrcurveto
          -30 -142 806 0 31 142 -133 19 -16 64 callgsubr
          -770 0 -30 -142 rlineto
          123 -19 16 -18 -19 -88 -81 -382 rcurveline
          -20 -70 -60 -11 -79 hhcurveto
          -108 -64 83 203 43 hvcurveto
          29 134 18 79 14 28 117 11 rlinecurve
          30 142 -747 0 -30 -142 rlineto
          134 -15 12 -24 -17 -79 -31 -145 rcurveline
          -343 -72 154 -148 367 hhcurveto
          148 88 32 28 84 hvcurveto
          endchar
        </CharString>
        <CharString name="Chigreek">
          1542 368 353 49 callsubr
        </CharString>
        <CharString name="D">
          1717 30 callsubr
          endchar
        </CharString>
        <CharString name="Dbar">
          1717 189 666 rmoveto
          158 hlineto
          -85 -399 rlineto
          -18 -84 -24 -18 -142 -23 142 callsubr
          416 -326 199 -448 vhcurveto
          155 callsubr
          -77 -363 rcurveline
          -157 hlineto
          1051 88 164 callsubr
          107 503 188 0 32 148 -189 0 99 467 38 -2 rlineto
          171 -11 119 -137 -229 vvcurveto
          endchar
        </CharString>
        <CharString name="Dcaron">
          1717 1334 -35 callsubr
          -14 callsubr
          280 -1058 124 callsubr
          endchar
        </CharString>
        <CharString name="Dcircumflexbelow">
          1717 30 callsubr
          -852 -1385 39 callsubr
          -62 callgsubr
        </CharString>
        <CharString name="Dcommaaccent">
          1717 30 callsubr
          -674 -1396 -63 callsubr
          33 callsubr
          -25 -109 rlineto
          6 22 192 callsubr
        </CharString>
        <CharString name="Ddotaccent">
          1717 1091 -65 callsubr
          -40 callsubr
          697 -710 124 callsubr
          endchar
        </CharString>
        <CharString name="Ddotbelow">
          1717 30 callsubr
          -616 -1015 -80 callsubr
          -64 callsubr
        </CharString>
        <CharString name="Decyrillic">
          1613 669 716 rmoveto
          40 140 52 193 52 215 rrcurveto
          374 hlineto
          -231 -1084 rlineto
          -512 hlineto
          83 115 67 158 75 263 rrcurveto
          976 -536 rmoveto
          -219 hlineto
          211 997 18 85 25 17 141 23 rlinecurve
          30 142 -1381 0 -30 -142 rlineto
          155 -18 18 -31 -33 -143 -27 -114 -35 -133 -46 -148 -75 -250 -79 -174 -103 -111 rrcurveto
          -149 hlineto
          -117 -496 rlineto
          138 hlineto
          258 119 79 58 249 hhcurveto
          567 hlineto
          250 55 -58 -258 8 hvcurveto
          138 hlineto
          endchar
        </CharString>
        <CharString name="Deltagreek">
          1386 16 hmoveto
          1354 hlineto
          25 121 -214 1323 -388 0 -752 -1323 rlineto
          240 46 rmoveto
          490 914 118 -914 rlineto
          endchar
        </CharString>
        <CharString name="Djecyrillic">
          1869 1905 426 rmoveto
          279 -198 141 -302 -128 -87 -23 -25 -79 vhcurveto
          80 callgsubr
          81 422 -1367 0 -97 -422 rlineto
          130 hlineto
          95 223 44 27 190 8 rrcurveto
          34 18 callsubr
          807 0 30 142 274 callsubr
          54 8 68 hhcurveto
          115 70 -63 -144 -287 -150 -251 -289 -165 hvcurveto
          39 -117 rlineto
          577 180 291 281 359 vvcurveto
          endchar
        </CharString>
        <CharString name="Dlinebelow">
          1717 30 callsubr
          -993 -1297 -57 callsubr
        </CharString>
        <CharString name="Dzecyrillic">
          1273 651 -34 113 callsubr
          endchar
        </CharString>
        <CharString name="Dzhecyrillic">
          1744 196 callsubr
          548 hlineto
          125 20 -31 -285 -4 hvcurveto
          137 hlineto
          285 116 33 31 125 hhcurveto
          549 hlineto
          82 callgsubr
          24 17 142 23 -6 callsubr
          123 -22 15 -18 -18 -85 rlinecurve
          -212 -997 -401 193 callsubr
        </CharString>
        <CharString name="E">
          1395 1599 1444 -90 callsubr
        </CharString>
        <CharString name="Eacute">
          1395 1078 -45 callgsubr
          142 -440 -90 callsubr
        </CharString>
        <CharString name="Ebreve">
          1395 1057 -71 callgsubr
          1 callgsubr
          542 -120 -90 callsubr
        </CharString>
        <CharString name="Ecaron">
          1395 1284 1887 rmoveto
          -217 -134 -165 134 -167 94 callsubr
          142 -443 -90 callsubr
        </CharString>
        <CharString name="Ecedilla">
          1395 620 -494 -54 callgsubr
          89 81 492 0 -55 callsubr
          -17 callgsubr
          200 callsubr
          614 199 callsubr
          64 callsubr
        </CharString>
        <CharString name="Ecedillabreve">
          1395 1057 -71 callgsubr
          1 callgsubr
          -437 -2058 -54 callgsubr
          89 81 492 0 -55 callsubr
          -17 callgsubr
          200 callsubr
          614 199 callsubr
          64 callsubr
        </CharString>
        <CharString name="Ecircumflex">
          1395 827 1550 rmoveto
          215 -43 callsubr
          931 -106 -90 callsubr
        </CharString>
        <CharString name="Ecircumflexacute">
          1395 1478 1891 rmoveto
          41 32 callsubr
          -63 -307 rmoveto
          412 84 callsubr
          -90 0 -381 -156 rlineto
          969 -169 -90 callsubr
        </CharString>
        <CharString name="Ecircumflexbelow">
          1395 1599 1444 rmoveto
          -1245 -36 callsubr
          1280 0 -55 callsubr
          -1079 -1505 111 callsubr
        </CharString>
        <CharString name="Ecircumflexdotbelow">
          1395 827 1550 rmoveto
          215 -43 callsubr
          931 -106 rmoveto
          -1245 -36 callsubr
          1280 0 -55 callsubr
          -843 -1135 -80 callsubr
          -64 callsubr
        </CharString>
        <CharString name="Ecircumflexgrave">
          1395 688 148 callsubr
          -123 -589 rmoveto
          412 84 callsubr
          -90 0 -381 -156 rlineto
          969 -169 -90 callsubr
        </CharString>
        <CharString name="Ecircumflexhookabove">
          1395 1445 2044 rmoveto
          -94 -101 47 callgsubr
          -46 46 callgsubr
          -839 -547 rmoveto
          412 84 callsubr
          -90 0 -381 -156 rlineto
          969 -169 -90 callsubr
        </CharString>
        <CharString name="Ecircumflextilde">
          1395 1227 1829 rmoveto
          151 68 callsubr
          7 11 -34 -7 callsubr
          168 hlineto
          43 9 30 22 46 hhcurveto
          28 30 -8 -11 -12 callsubr
          -621 -332 rmoveto
          412 84 callsubr
          -90 0 -381 -156 rlineto
          969 -169 -90 callsubr
        </CharString>
        <CharString name="Ecyrillic">
          1467 741 541 rmoveto
          33 2 34 3 33 vhcurveto
          482 -5 42 193 -489 -5 rlineto
          250 72 158 213 192 hhcurveto
          159 88 -13 callgsubr
          -499 -378 -328 -496 -8 hvcurveto
          -16 callsubr
        </CharString>
        <CharString name="Edblgrave">
          1395 910 1884 rmoveto
          -295 -10 hlineto
          194 -324 rlineto
          142 88 callgsubr
          397 -106 -90 callsubr
        </CharString>
        <CharString name="Edieresis">
          1395 844 1560 rmoveto
          18 callgsubr
          392 hmoveto
          19 callsubr
          -82 64 -67 87 hvcurveto
          363 -116 -90 callsubr
        </CharString>
        <CharString name="Edotaccent">
          1395 1040 21 callsubr
          44 callsubr
          559 -95 -90 callsubr
        </CharString>
        <CharString name="Edotbelow">
          1395 1599 1444 rmoveto
          -1245 -36 callsubr
          1280 0 -55 callsubr
          -843 -1135 -80 callsubr
          -64 callsubr
        </CharString>
        <CharString name="Efcyrillic">
          2153 174 674 rmoveto
          -258 209 -156 516 -31 vhcurveto
          -2 -7 -15 -73 -23 -20 -151 -16 rlinecurve
          -31 -142 780 0 30 142 rlineto
          -145 16 -14 20 16 73 1 7 rcurveline
          701 37 232 236 1 268 -1 258 -208 156 -515 31 rrcurveto
          1 7 15 73 23 20 152 16 rlinecurve
          30 142 -779 0 -31 -142 rlineto
          145 -16 14 -20 -15 -73 -2 -7 rcurveline
          -701 -38 -233 -235 -268 vvcurveto
          514 4 rmoveto
          194 88 123 293 36 vhcurveto
          -130 -613 rlineto
          -192 35 -59 92 133 vvcurveto
          1077 88 rmoveto
          -194 -88 -123 -293 -36 vhcurveto
          130 613 rlineto
          192 -35 59 -92 -133 vvcurveto
          endchar
        </CharString>
        <CharString name="Egrave">
          1395 1021 89 callgsubr
          485 -107 -90 callsubr
        </CharString>
        <CharString name="Ehookabove">
          1395 1094 -38 callsubr
          -48 hvcurveto
          -21 -100 rlineto
          13 27 49 12 48 hhcurveto
          74 40 -25 -45 -49 -47 -47 -101 -60 hvcurveto
          -18 callgsubr
          505 -464 -90 callsubr
        </CharString>
        <CharString name="Einvertedbreve">
          1395 1047 1935 rmoveto
          -208 -39 callgsubr
          16 5 callgsubr
          552 -491 -90 callsubr
        </CharString>
        <CharString name="Elcyrillic">
          1688 263 -34 rmoveto
          240 135 205 501 135 hvcurveto
          78 293 43 171 31 128 rrcurveto
          360 hlineto
          -211 -997 -19 -88 -23 -18 -132 -19 rlinecurve
          -30 -142 -68 callsubr
          -133 19 -16 64 callgsubr
          -1366 248 callsubr
          -122 77 -85 143 hvcurveto
          endchar
        </CharString>
        <CharString name="Emacron">
          1395 683 1593 rmoveto
          674 hlineto
          44 208 rlineto
          -673 hlineto
          871 -357 -90 callsubr
        </CharString>
        <CharString name="Emacronacute">
          1395 1482 -20 callsubr
          -50 -235 -22 callgsubr
          942 -302 -90 callsubr
        </CharString>
        <CharString name="Emacrongrave">
          1395 692 -21 callsubr
          -110 -518 -22 callgsubr
          942 -302 -90 callsubr
        </CharString>
        <CharString name="Emcyrillic">
          1981 1056 1444 52 callsubr
        </CharString>
        <CharString name="Encyrillic">
          1753 728 9 callsubr
          -72 callsubr
          -61 callsubr
          -68 callsubr
          104 callsubr
          endchar
        </CharString>
        <CharString name="Eogonek">
          1395 1012 -493 rmoveto
          103 83 29 41 48 hvcurveto
          28 137 rlineto
          -10 -14 268 callsubr
          185 hlineto
          -55 callsubr
          -17 callgsubr
          rlineto
          133 -23 16 -18 -18 -84 -193 -910 rcurveline
          -18 -84 -24 -18 -142 -23 -31 -142 rcurveline
          909 76 callgsubr
        </CharString>
        <CharString name="Epsilongreek">
          1395 1599 1444 -90 callsubr
        </CharString>
        <CharString name="Epsilontonosgreek">
          1870 2074 1444 rmoveto
          -1245 -36 callsubr
          1280 0 -55 callsubr
          -1632 422 71 callsubr
        </CharString>
        <CharString name="Ercyrillic">
          1565 858 hmoveto
          51 callsubr
        </CharString>
        <CharString name="Ereversedcyrillic">
          1515 415 1342 rmoveto
          -84 -370 rlineto
          132 hlineto
          232 95 114 91 143 hhcurveto
          186 79 -192 -280 hvcurveto
          -2 vlineto
          -480 5 -41 -194 507 6 rlineto
          -268 -44 -139 -221 -236 hhcurveto
          -184 -96 117 210 6 hvcurveto
          -132 hlineto
          -62 -370 rlineto
          -69 73 214 -71 224 hhcurveto
          544 354 334 471 490 -376 217 -354 -169 -164 -43 -93 -110 hvcurveto
          endchar
        </CharString>
        <CharString name="Escyrillic">
          1458 741 541 -45 callsubr
          -16 callsubr
        </CharString>
        <CharString name="Etagreek">
          1753 728 9 callsubr
          -72 callsubr
          -61 callsubr
          -68 callsubr
          104 callsubr
          endchar
        </CharString>
        <CharString name="Etatonosgreek">
          2228 1203 9 callsubr
          -31 -142 -68 callsubr
          -133 19 -16 19 19 87 rlinecurve
          193 910 19 87 24 19 141 19 -6 callsubr
          -82 callgsubr
          -76 -356 -410 0 75 356 18 84 23 19 132 22 96 callsubr
          132 -23 16 -18 -18 -84 rlinecurve
          -101 callsubr
          45 callsubr
          -68 callsubr
          104 callsubr
          -842 1177 71 callsubr
        </CharString>
        <CharString name="Etilde">
          1395 1162 106 callgsubr
          -20 -19 9 14 -17 hvcurveto
          -24 18 rlineto
          39 -52 -54 23 -63 hhcurveto
          -108 -94 -65 -48 callsubr
          14 25 24 33 hhcurveto
          20 19 -9 -14 17 hvcurveto
          24 -18 rlineto
          -38 52 54 -24 62 hhcurveto
          437 -117 -90 callsubr
        </CharString>
        <CharString name="Etildebelow">
          1395 1599 1444 rmoveto
          -1245 -36 callsubr
          1280 0 -55 callsubr
          -721 -1491 179 callsubr
          116 callgsubr
        </CharString>
        <CharString name="F">
          1313 1577 1444 rmoveto
          -1223 -36 callsubr
          229 callsubr
        </CharString>
        <CharString name="Fdotaccent">
          1313 1091 -65 callsubr
          -40 callsubr
          486 -95 rmoveto
          -1223 -36 callsubr
          229 callsubr
        </CharString>
        <CharString name="G">
          1622 237 654 -29 callsubr
        </CharString>
        <CharString name="Gacute">
          1622 1231 -78 callsubr
          -69 callsubr
          -1373 -1230 -29 callsubr
        </CharString>
        <CharString name="Gammagreek">
          1321 1584 1444 rmoveto
          -1228 hlineto
          -31 -142 135 -23 16 -17 -18 -85 rlinecurve
          -193 -910 -18 -85 -24 -17 -144 -23 rlinecurve
          -30 -142 798 0 30 142 -145 22 -18 19 18 84 rlinecurve
          215 1014 158 -5 228 -9 27 -28 13 -217 rlinecurve
          130 hlineto
          endchar
        </CharString>
        <CharString name="Gbreve">
          1622 1210 90 callsubr
          -97 -68 23 callsubr
          24 callsubr
          -973 -910 -29 callsubr
        </CharString>
        <CharString name="Gcaron">
          1622 1437 66 callsubr
          42 callsubr
          -1373 -1233 -29 callsubr
        </CharString>
        <CharString name="Gcircumflex">
          1622 980 -71 callsubr
          136 61 callgsubr
          -583 -896 -29 callsubr
        </CharString>
        <CharString name="Gcommaaccent">
          1622 237 654 rmoveto
          -8 -475 350 -212 387 -1 rrcurveto
          212 202 54 71 113 hvcurveto
          83 390 17 79 19 23 121 16 rlinecurve
          30 142 -685 0 -30 -142 rlineto
          128 -16 13 -22 -16 -78 -64 -307 rcurveline
          -14 -24 -31 -6 -34 hhcurveto
          -171 -107 136 249 348 199 398 263 158 89 -13 callgsubr
          -500 -378 -328 -496 -8 hvcurveto
          592 -1148 -63 callsubr
          -98 75 -120 -90 -74 callgsubr
          136 callsubr
        </CharString>
        <CharString name="Gdotaccent">
          1622 1193 21 callsubr
          -86 -83 -104 -93 74 -75 101 hvcurveto
          -956 -885 -29 callsubr
        </CharString>
        <CharString name="Geacutecyrillic">
          1315 1065 -34 callsubr
          -47 callsubr
          135 -440 rmoveto
          -1224 hlineto
          -30 -142 132 -23 -98 callgsubr
          249 callsubr
        </CharString>
        <CharString name="Gecyrillic">
          1315 1578 1444 rmoveto
          -1224 hlineto
          -30 -142 132 -23 -98 callgsubr
          249 callsubr
        </CharString>
        <CharString name="Germandbls">
          1746 686 hmoveto
          263 1281 137 -6 rlineto
          217 -10 71 -79 -123 vvcurveto
          -109 -96 -68 -139 -5 vhcurveto
          -62 -284 rlineto
          174 -63 84 -120 -123 vvcurveto
          -101 -55 -49 -82 -117 -58 106 186 7 vhcurveto
          -130 hlineto
          -71 -354 rlineto
          -67 84 150 -46 163 hhcurveto
          292 240 165 285 188 -82 154 -157 95 hvcurveto
          158 24 131 91 163 vvcurveto
          202 -190 111 -376 vhcurveto
          -885 hlineto
          -29 -142 rlineto
          133 -23 17 -22 -17 -80 -187 -910 rcurveline
          -17 -85 -25 -17 -142 -23 -29 -142 rcurveline
          endchar
        </CharString>
        <CharString name="Geupturncyrillic">
          1301 1527 1272 rmoveto
          111 488 rlineto
          -137 hlineto
          -254 -123 -65 -62 -222 hhcurveto
          -737 hlineto
          -30 -142 131 -23 -98 callgsubr
          -24 -17 45 callsubr
          809 0 30 142 rlineto
          -126 22 -50 19 18 84 215 1005 rcurveline
          endchar
        </CharString>
        <CharString name="Gmacron">
          1622 836 -17 callsubr
          -643 -1147 -29 callsubr
        </CharString>
        <CharString name="H">
          1753 728 9 callsubr
          -72 callsubr
          -61 callsubr
          -68 callsubr
          104 callsubr
          endchar
        </CharString>
        <CharString name="Hacyrillic">
          1542 368 353 49 callsubr
        </CharString>
        <CharString name="Hardsigncyrillic">
          1818 1886 533 rmoveto
          239 -202 140 -328 vhcurveto
          -222 hlineto
          56 265 18 86 31 13 161 26 rlinecurve
          30 142 -1080 0 -97 -422 rlineto
          135 hlineto
          101 227 58 23 191 5 rrcurveto
          6 hlineto
          -214 -1010 rlineto
          -18 -85 -24 -17 -141 -23 -31 -142 rcurveline
          845 hlineto
          413 312 201 332 hvcurveto
          -492 -1 rmoveto
          -185 -116 -171 -229 -7 vhcurveto
          -72 -3 122 578 rlineto
          81 hlineto
          126 88 -61 -151 hvcurveto
          endchar
        </CharString>
        <CharString name="Hbar">
          1753 728 267 rmoveto
          81 381 411 0 -81 -381 -19 -88 -22 -18 -132 -19 rlinecurve
          -72 callsubr
          -133 19 -16 18 19 88 rlinecurve
          153 720 157 0 31 149 -157 0 9 41 19 88 24 18 141 19 rlinecurve
          30 142 -770 0 -30 -142 124 -19 14 -18 -19 -88 rlinecurve
          -9 -41 -411 0 9 41 18 84 22 19 133 22 rlinecurve
          30 142 -770 0 -30 -142 132 -23 16 -18 -18 -84 rlinecurve
          -9 -41 -157 0 -31 -149 157 0 -153 -720 -18 -84 -24 -18 -94 callsubr
          770 0 31 142 -124 22 -14 19 18 84 rlinecurve
          118 554 rmoveto
          35 166 411 0 -35 -166 rlineto
          endchar
        </CharString>
        <CharString name="Hbrevebelow">
          1753 728 9 callsubr
          -72 callsubr
          -61 callsubr
          -68 callsubr
          104 callsubr
          96 -749 rmoveto
          219 73 callgsubr
          -101 -71 59 69 hvcurveto
          2 0 2 1 vvcurveto
          -150 hlineto
          -9 -25 -5 269 callsubr
        </CharString>
        <CharString name="Hcaron">
          1753 1484 1886 rmoveto
          -217 -134 -164 134 -168 94 callsubr
          -929 -1619 rmoveto
          81 callgsubr
          -72 callsubr
          -61 callsubr
          -68 callsubr
          104 callsubr
          endchar
        </CharString>
        <CharString name="Hcedilla">
          1753 306 -69 callgsubr
          89 81 297 0 30 142 104 callsubr
          81 callgsubr
          -72 callsubr
          -61 callsubr
          300 0 -121 -117 -23 -93 callgsubr
          206 callsubr
        </CharString>
        <CharString name="Hcircumflex">
          1753 1028 -71 callsubr
          135 158 -135 153 0 -126 333 -298 0 -261 -333 rlineto
          -140 -1283 rmoveto
          81 callgsubr
          -72 callsubr
          -61 callsubr
          -68 callsubr
          104 callsubr
          endchar
        </CharString>
        <CharString name="Hdieresis">
          1753 1044 1559 rmoveto
          90 74 74 90 -80 callgsubr
          -1 hvcurveto
          -82 64 -67 87 vhcurveto
          26 callsubr
          -86 -90 -15 callgsubr
          -708 -1292 rmoveto
          81 callgsubr
          -72 callsubr
          -61 callsubr
          -68 callsubr
          104 callsubr
          endchar
        </CharString>
        <CharString name="Hdotaccent">
          1753 1240 1538 rmoveto
          -30 callsubr
          -99 -104 -85 -83 -103 -93 74 -76 100 hvcurveto
          -512 -1271 rmoveto
          81 callgsubr
          -72 callsubr
          -61 callsubr
          -68 callsubr
          104 callsubr
          endchar
        </CharString>
        <CharString name="Hdotbelow">
          1753 728 9 callsubr
          -72 callsubr
          -61 callsubr
          -68 callsubr
          104 callsubr
          97 -380 -53 callgsubr
        </CharString>
        <CharString name="I">
          877 729 267 -91 callsubr
          -100 callsubr
          -99 callsubr
          -95 callsubr
          -101 callsubr
          -94 callsubr
          -93 callsubr
          -83 callsubr
        </CharString>
        <CharString name="IAcyrillic">
          1588 300 970 rmoveto
          -152 79 -96 150 -40 vhcurveto
          -203 -256 -125 -157 -99 -111 -64 -23 rlinecurve
          -29 -135 486 0 430 576 rlineto
          3 2 -1 3 hhcurveto
          106 hlineto
          -65 -308 -18 -88 -24 -18 -131 -19 rlinecurve
          -31 -142 -68 callsubr
          rlineto
          -133 19 -16 18 19 88 193 910 rcurveline
          19 88 23 18 142 19 30 142 rcurveline
          -835 hlineto
          -474 -239 -187 -287 hvcurveto
          481 -22 rmoveto
          185 103 137 221 5 vhcurveto
          81 3 -111 -535 rlineto
          -94 hlineto
          -114 -86 69 136 hvcurveto
          endchar
        </CharString>
        <CharString name="IJ">
          1755 1611 294 -86 callgsubr
          -100 callsubr
          -99 callsubr
          182 callsubr
          -882 -27 -91 callsubr
          -100 callsubr
          -99 callsubr
          -95 callsubr
          -101 callsubr
          -94 callsubr
          -93 callsubr
          -83 callsubr
        </CharString>
        <CharString name="IJacute">
          1755 832 -34 callsubr
          -47 callsubr
          490 hmoveto
          -193 -334 -47 callsubr
          -467 -1590 -86 callgsubr
          -100 callsubr
          -99 callsubr
          182 callsubr
          -882 -27 -91 callsubr
          -100 callsubr
          -99 callsubr
          -95 callsubr
          -101 callsubr
          -94 callsubr
          -93 callsubr
          -83 callsubr
        </CharString>
        <CharString name="IUcyrillic">
          2483 47 hmoveto
          771 hlineto
          30 142 rlineto
          -123 22 -15 18 18 85 81 381 rcurveline
          165 -4 hlineto
          -359 235 -319 501 517 329 368 466 359 -235 319 -502 vhcurveto
          -449 -1 -307 -278 -73 -378 rrcurveto
          -145 hlineto
          76 356 18 85 22 18 133 22 96 callsubr
          258 callsubr
          1624 7 rmoveto
          -129 -78 119 264 352 113 411 222 129 78 -119 -264 -352 -113 -411 -222 hvcurveto
          endchar
        </CharString>
        <CharString name="Iacute">
          877 832 -34 callsubr
          -47 callsubr
          -481 -1617 -91 callsubr
          -100 callsubr
          -99 callsubr
          -95 callsubr
          -101 callsubr
          -94 callsubr
          -93 callsubr
          -83 callsubr
        </CharString>
        <CharString name="Ibreve">
          877 810 1564 rmoveto
          208 140 128 243 7 hvcurveto
          -139 hlineto
          -86 -15 -83 -49 -108 hhcurveto
          -97 -67 23 callsubr
          -6 -35 -36 vvcurveto
          -158 1 131 -118 176 hhcurveto
          -81 -1297 -91 callsubr
          -100 callsubr
          -99 callsubr
          -95 callsubr
          -101 callsubr
          -94 callsubr
          -93 callsubr
          -83 callsubr
        </CharString>
        <CharString name="Icaron">
          877 1037 165 callsubr
          -168 94 callsubr
          -481 -1620 -91 callsubr
          -100 callsubr
          -99 callsubr
          -95 callsubr
          -101 callsubr
          -94 callsubr
          -93 callsubr
          -83 callsubr
        </CharString>
        <CharString name="Icircumflex">
          877 581 -71 callsubr
          -43 callsubr
          308 -1283 -91 callsubr
          -100 callsubr
          -99 callsubr
          -95 callsubr
          -101 callsubr
          -94 callsubr
          -93 callsubr
          -83 callsubr
        </CharString>
        <CharString name="Icyrillic">
          877 729 267 -91 callsubr
          -100 callsubr
          -99 callsubr
          -95 callsubr
          -101 callsubr
          -94 callsubr
          -93 callsubr
          -83 callsubr
        </CharString>
        <CharString name="Idblgrave">
          877 664 1884 rmoveto
          -296 -10 hlineto
          194 -324 rlineto
          142 hlineto
          331 334 rmoveto
          -275 -10 hlineto
          64 -324 rlineto
          132 hlineto
          -227 -1283 -91 callsubr
          -100 callsubr
          -99 callsubr
          -95 callsubr
          -101 callsubr
          -94 callsubr
          -93 callsubr
          -83 callsubr
        </CharString>
        <CharString name="Idieresis">
          877 597 1560 rmoveto
          90 74 74 90 -80 callgsubr
          hvcurveto
          -82 -1 64 -67 87 hhcurveto
          26 callsubr
          -86 -90 -15 callgsubr
          -260 -1293 -91 callsubr
          -100 callsubr
          -99 callsubr
          -95 callsubr
          -101 callsubr
          -94 callsubr
          -93 callsubr
          -83 callsubr
        </CharString>
        <CharString name="Idieresisacute">
          877 1235 1909 rmoveto
          41 196 -826 -172 -23 -111 rlineto
          142 -274 rmoveto
          78 75 49 70 14 hvcurveto
          70 15 -53 48 -78 hhcurveto
          -21 hlineto
          -79 -73 -48 -70 -15 hvcurveto
          -70 -15 53 -49 78 hhcurveto
          428 hmoveto
          -49 callsubr
          -79 hhcurveto
          -21 hlineto
          -78 -73 0 callsubr
          78 hhcurveto
          -225 -1281 -91 callsubr
          -100 callsubr
          -99 callsubr
          -95 callsubr
          -101 callsubr
          -94 callsubr
          -93 callsubr
          -83 callsubr
        </CharString>
        <CharString name="Idotaccent">
          877 793 1539 rmoveto
          -30 callsubr
          -99 -104 44 callsubr
          -64 -1272 -91 callsubr
          -100 callsubr
          -99 callsubr
          -95 callsubr
          -101 callsubr
          -94 callsubr
          -93 callsubr
          -83 callsubr
        </CharString>
        <CharString name="Idotbelow">
          877 729 267 -91 callsubr
          -100 callsubr
          -99 callsubr
          -95 callsubr
          -101 callsubr
          -94 callsubr
          -93 callsubr
          103 callsubr
          -346 -380 -80 callsubr
          -64 callsubr
        </CharString>
        <CharString name="Iecyrillic">
          1395 1599 1444 -90 callsubr
        </CharString>
        <CharString name="Igrave">
          877 774 1884 rmoveto
          -363 -13 hlineto
          318 -320 rlineto
          139 hlineto
          -139 -1284 -91 callsubr
          -100 callsubr
          -99 callsubr
          -95 callsubr
          -101 callsubr
          -94 callsubr
          -93 callsubr
          -83 callsubr
        </CharString>
        <CharString name="Ihookabove">
          877 847 -38 callsubr
          -18 callsubr
          -49 -46 -47 -102 -60 hvcurveto
          -18 callgsubr
          -118 -1641 -91 callsubr
          -100 callsubr
          -99 callsubr
          -95 callsubr
          -101 callsubr
          -94 callsubr
          -93 callsubr
          -83 callsubr
        </CharString>
        <CharString name="Iicyrillic">
          1770 47 hmoveto
          771 hlineto
          30 142 -123 22 -15 18 18 85 rlinecurve
          1 5 553 586 -126 -591 188 callsubr
          193 910 19 88 24 18 141 19 -6 callsubr
          -82 callgsubr
          20 callgsubr
        </CharString>
        <CharString name="Iinvertedbreve">
          877 800 1935 rmoveto
          -208 -141 -127 -244 -6 hvcurveto
          139 hlineto
          87 15 5 callgsubr
          -71 -1668 -91 callsubr
          -100 callsubr
          -99 callsubr
          -95 callsubr
          -101 callsubr
          -94 callsubr
          -93 callsubr
          -83 callsubr
        </CharString>
        <CharString name="Iishortcyrillic">
          1770 1228 -35 callgsubr
          -29 callgsubr
          56 callgsubr
          -102 -67 -69 -101 -119 93 -104 188 vhcurveto
          -1181 -1551 rmoveto
          771 hlineto
          30 142 -123 22 -15 18 18 85 rlinecurve
          1 5 553 586 -126 -591 188 callsubr
          193 910 19 88 24 18 141 19 -6 callsubr
          -82 callgsubr
          20 callgsubr
        </CharString>
        <CharString name="Imacron">
          877 436 153 callsubr
          248 -1534 -91 callsubr
          -100 callsubr
          -99 callsubr
          -95 callsubr
          -101 callsubr
          -94 callsubr
          -93 callsubr
          -83 callsubr
        </CharString>
        <CharString name="Iocyrillic">
          1395 844 1560 rmoveto
          18 callgsubr
          392 hmoveto
          19 callsubr
          -82 64 -67 87 hvcurveto
          363 -116 -90 callsubr
        </CharString>
        <CharString name="Iogonek">
          877 414 -50 callgsubr
          -15 268 callsubr
          285 hlineto
          30 142 103 callsubr
          193 910 18 84 24 18 -100 callsubr
          -99 callsubr
          rlineto
          132 -14 16 -27 -18 -84 -193 -910 rcurveline
          -18 -14 callgsubr
          311 76 callgsubr
        </CharString>
        <CharString name="Iotadieresisgreek">
          877 597 1560 rmoveto
          90 74 74 90 -80 callgsubr
          hvcurveto
          -82 -1 64 -67 87 hhcurveto
          26 callsubr
          -86 -90 -15 callgsubr
          -260 -1293 -91 callsubr
          -100 callsubr
          -99 callsubr
          -95 callsubr
          -101 callsubr
          -94 callsubr
          -93 callsubr
          -83 callsubr
        </CharString>
        <CharString name="Iotagreek">
          877 729 267 -91 callsubr
          -100 callsubr
          -99 callsubr
          -95 callsubr
          -101 callsubr
          -94 callsubr
          -93 callsubr
          -83 callsubr
        </CharString>
        <CharString name="Iotatonosgreek">
          1366 1217 267 rmoveto
          193 910 18 84 25 18 141 23 rlinecurve
          30 142 -781 0 -31 -142 -95 callsubr
          -192 -910 -18 -84 -25 -18 -141 -23 rlinecurve
          -30 -142 781 0 30 142 -131 23 -17 18 18 84 rlinecurve
          -856 1177 71 callsubr
        </CharString>
        <CharString name="Itilde">
          877 916 1561 rmoveto
          107 -32 callgsubr
          -24 -24 -34 hhcurveto
          -20 -19 -4 callsubr
          3 callgsubr
          -187 -1294 -91 callsubr
          -100 callsubr
          -99 callsubr
          -95 callsubr
          -101 callsubr
          -94 callsubr
          -93 callsubr
          -83 callsubr
        </CharString>
        <CharString name="Itildebelow">
          877 729 267 -91 callsubr
          -100 callsubr
          -99 callsubr
          -95 callsubr
          -101 callsubr
          -94 callsubr
          -93 callsubr
          103 callsubr
          -224 -736 179 callsubr
          116 callgsubr
        </CharString>
        <CharString name="J">
          877 733 294 -86 callgsubr
          131 callsubr
        </CharString>
        <CharString name="Jacute">
          877 822 -45 callgsubr
          -468 -1590 -86 callgsubr
          131 callsubr
        </CharString>
        <CharString name="Jcircumflex">
          877 571 1550 rmoveto
          215 136 158 -136 153 0 -126 334 -298 0 -262 -334 rlineto
          322 -1256 -86 callgsubr
          131 callsubr
        </CharString>
        <CharString name="Jecyrillic">
          877 733 294 -86 callgsubr
          131 callsubr
        </CharString>
        <CharString name="K">
          1593 729 267 12 callsubr
        </CharString>
        <CharString name="Kaacutecyrillic">
          1593 1283 -78 callsubr
          -69 callsubr
          -933 -1617 12 callsubr
        </CharString>
        <CharString name="Kacute">
          1593 1283 -78 callsubr
          -69 callsubr
          -933 -1617 12 callsubr
        </CharString>
        <CharString name="Kacyrillic">
          1593 729 267 12 callsubr
        </CharString>
        <CharString name="Kappagreek">
          1593 729 267 12 callsubr
        </CharString>
        <CharString name="Kcaron">
          1593 1489 66 callsubr
          42 callsubr
          -933 -1620 12 callsubr
        </CharString>
        <CharString name="Kcommaaccent">
          191 callsubr
          85 -761 -63 callsubr
          -98 75 -121 -89 -74 callgsubr
          136 callsubr
        </CharString>
        <CharString name="Kdotbelow">
          191 callsubr
          142 -380 -53 callgsubr
        </CharString>
        <CharString name="Klinebelow">
          191 callsubr
          -235 -662 80 callsubr
        </CharString>
        <CharString name="L">
          17 callsubr
          endchar
        </CharString>
        <CharString name="Lacute">
          1297 831 -78 callsubr
          46 callsubr
          46 -1884 rmoveto
          -23 callsubr
          7 callsubr
          endchar
        </CharString>
        <CharString name="Lambdagreek">
          1567 1440 342 rmoveto
          -149 1102 -401 0 -619 -1098 -92 -162 -27 -25 -121 -17 rlinecurve
          -30 -142 512 0 30 142 -141 23 -14 29 89 162 rlinecurve
          397 736 82 -746 17 -153 -25 -29 -150 -22 rlinecurve
          -30 -142 799 0 30 142 -117 17 -18 24 -22 159 rlinecurve
          endchar
        </CharString>
        <CharString name="Lcaron">
          1297 1331 70 callsubr
          76 -1145 rmoveto
          -23 callsubr
          7 callsubr
          endchar
        </CharString>
        <CharString name="Lcircumflexbelow">
          17 callsubr
          338 -483 39 callsubr
          158 0 -122 384 -309 0 -278 -384 rlineto
          endchar
        </CharString>
        <CharString name="Lcommaaccent">
          17 callsubr
          516 -494 -63 callsubr
          -98 75 -120 -90 -74 callgsubr
          136 callsubr
        </CharString>
        <CharString name="Ldot">
          17 callsubr
          1173 672 rmoveto
          122 99 99 119 111 -88 90 -115 -123 -100 -99 -121 -110 87 -89 118 hvcurveto
          endchar
        </CharString>
        <CharString name="Ldotbelow">
          17 callsubr
          573 -113 -72 callgsubr
        </CharString>
        <CharString name="Ldotbelowmacron">
          1297 435 153 callsubr
          775 -1801 rmoveto
          -23 callsubr
          7 callsubr
          573 -113 -72 callgsubr
        </CharString>
        <CharString name="Ljecyrillic">
          2347 43 173 rmoveto
          -122 77 -85 143 240 135 205 501 135 vhcurveto
          78 293 43 171 31 128 rrcurveto
          347 hlineto
          -212 -997 rlineto
          -18 -85 100 callgsubr
          201 332 239 -202 140 -329 hvcurveto
          255 callsubr
          31 142 -1379 248 callsubr
          hvcurveto
          1881 359 rmoveto
          -185 -116 -171 -230 -7 vhcurveto
          -71 -3 122 578 rlineto
          80 hlineto
          127 88 -61 -151 hvcurveto
          endchar
        </CharString>
        <CharString name="Llinebelow">
          17 callsubr
          197 -395 rmoveto
          696 hlineto
          45 208 rlineto
          -697 hlineto
          endchar
        </CharString>
        <CharString name="Lslash">
          1297 169 580 rmoveto
          167 38 -75 -351 -18 -84 -24 -18 -94 callsubr
          1208 0 -23 callsubr
          120 567 305 69 36 160 -307 -70 61 288 18 84 26 17 149 24 rlinecurve
          31 142 -791 0 -30 -142 132 -23 16 -18 -18 -84 rlinecurve
          -84 -399 -165 -38 rlineto
          endchar
        </CharString>
        <CharString name="M">
          1981 1056 1444 52 callsubr
        </CharString>
        <CharString name="Macute">
          1981 1391 -78 callsubr
          46 callsubr
          -713 -440 52 callsubr
        </CharString>
        <CharString name="Mdotaccent">
          1981 1353 -65 callsubr
          -40 callsubr
          -297 -95 52 callsubr
        </CharString>
        <CharString name="Mdotbelow">
          1981 1056 1444 rmoveto
          -694 hlineto
          -30 -142 134 -19 9 -32 -24 -104 rlinecurve
          -202 -885 -19 -80 -22 -24 -142 -16 rlinecurve
          -31 -142 513 0 30 142 -137 16 -9 24 17 80 rlinecurve
          157 783 121 -1045 255 0 322 618 225 426 -151 -784 -15 -79 -23 -23 -145 -16 -12 callgsubr
          7 callgsubr
          -334 -738 -80 callsubr
          -64 callsubr
        </CharString>
        <CharString name="Mugreek">
          1981 1056 1444 52 callsubr
        </CharString>
        <CharString name="N">
          1587 959 1444 170 callsubr
          endchar
        </CharString>
        <CharString name="Nacute">
          1587 1177 -34 callsubr
          -47 callsubr
          -596 -440 170 callsubr
          endchar
        </CharString>
        <CharString name="Ncaron">
          1587 1382 165 callsubr
          -168 94 callsubr
          -596 -443 170 callsubr
          endchar
        </CharString>
        <CharString name="Ncircumflexbelow">
          1587 92 callsubr
          -863 -949 39 callsubr
          -62 callgsubr
        </CharString>
        <CharString name="Ncommaaccent">
          1587 92 callsubr
          -685 -960 -63 callsubr
          33 callsubr
          -25 -109 rlineto
          6 22 192 callsubr
        </CharString>
        <CharString name="Ndotaccent">
          1587 1138 21 callsubr
          44 callsubr
          -179 -95 170 callsubr
          endchar
        </CharString>
        <CharString name="Ndotbelow">
          1587 92 callsubr
          -627 -579 rmoveto
          -104 -84 -84 -101 -94 74 -77 99 104 -64 callsubr
        </CharString>
        <CharString name="Ngrave">
          1587 1119 89 callgsubr
          -253 -107 170 callsubr
          endchar
        </CharString>
        <CharString name="Njecyrillic">
          2444 731 267 rmoveto
          87 408 425 0 -87 -408 rlineto
          -18 -85 -24 -17 -141 -23 -30 -142 rcurveline
          844 hlineto
          413 312 183 303 233 -202 136 -328 hvcurveto
          -234 hlineto
          68 322 18 86 31 13 161 26 rlinecurve
          30 142 -806 0 -31 -20 callgsubr
          -68 -322 -425 0 68 322 18 85 22 18 134 22 rlinecurve
          30 142 -770 0 -31 -20 callgsubr
          -192 -910 -19 -85 -24 -17 -141 -23 rlinecurve
          -72 callsubr
          -123 22 -15 18 18 85 rlinecurve
          1289 218 rmoveto
          -161 -116 -148 -229 -7 vhcurveto
          -72 -3 110 521 rlineto
          93 hlineto
          126 88 -59 -143 hvcurveto
          endchar
        </CharString>
        <CharString name="Nlinebelow">
          1587 92 callsubr
          -1004 -861 -57 callsubr
        </CharString>
        <CharString name="Ntilde">
          1587 1261 1561 rmoveto
          107 -32 callgsubr
          -24 -24 -34 hhcurveto
          -20 -19 -4 callsubr
          3 callgsubr
          -302 -117 170 callsubr
          endchar
        </CharString>
        <CharString name="Nugreek">
          1587 959 1444 170 callsubr
          endchar
        </CharString>
        <CharString name="O">
          81 callsubr
          -107 callsubr
          -103 callsubr
        </CharString>
        <CharString name="OE">
          2166 237 650 rmoveto
          -436 300 -248 394 vhcurveto
          145 90 34 164 hhcurveto
          770 hlineto
          104 457 rlineto
          -129 hlineto
          -117 -249 -44 -31 -208 -8 rrcurveto
          -185 -6 104 490 rlineto
          117 hlineto
          67 16 -24 -167 -6 hvcurveto
          125 hlineto
          116 545 rlineto
          -125 hlineto
          -164 -64 -26 -27 -68 hhcurveto
          -117 hlineto
          99 465 154 -5 220 -8 24 -31 12 -214 rlinecurve
          130 hlineto
          82 421 rlineto
          -877 hlineto
          -158 -101 34 -160 hhcurveto
          -518 -330 -368 -460 hvcurveto
          482 -47 rmoveto
          373 166 319 294 42 37 -7 -14 32 vhcurveto
          -238 -1122 rlineto
          -2 -14 -13 -1 -15 hhcurveto
          -167 -124 133 321 hvcurveto
          endchar
        </CharString>
        <CharString name="Oacute">
          1704 1198 -78 callsubr
          -69 callsubr
          -622 -1917 -98 callsubr
          -107 callsubr
          -103 callsubr
        </CharString>
        <CharString name="Obreve">
          1704 1177 90 callsubr
          -98 -67 23 callsubr
          24 callsubr
          -222 -1597 -98 callsubr
          -107 callsubr
          -103 callsubr
        </CharString>
        <CharString name="Ocaron">
          1704 1403 -35 callsubr
          -14 callsubr
          -622 -1920 -98 callsubr
          -107 callsubr
          -103 callsubr
        </CharString>
        <CharString name="Ocircumflex">
          1704 947 -71 callsubr
          63 callsubr
          168 -1583 -98 callsubr
          -107 callsubr
          -103 callsubr
        </CharString>
        <CharString name="Ocircumflexacute">
          1704 1597 1891 rmoveto
          42 32 callsubr
          -63 -307 -22 callsubr
          205 -1646 -98 callsubr
          -107 callsubr
          -103 callsubr
        </CharString>
        <CharString name="Ocircumflexdotbelow">
          1704 947 -71 callsubr
          63 callsubr
          168 -1583 -98 callsubr
          -107 callsubr
          hvcurveto
          -50 callsubr
          -28 183 rmoveto
          -126 -73 105 265 62 callsubr
          68 callgsubr
        </CharString>
        <CharString name="Ocircumflexgrave">
          1704 808 148 callsubr
          -123 -589 -22 callsubr
          205 -1646 -98 callsubr
          -107 callsubr
          -103 callsubr
        </CharString>
        <CharString name="Ocircumflexhookabove">
          1704 1564 -10 callgsubr
          205 -1646 -98 callsubr
          -107 callsubr
          -103 callsubr
        </CharString>
        <CharString name="Ocircumflextilde">
          1704 1347 1829 72 callsubr
          -47 hhcurveto
          -27 -31 7 11 -33 -7 callsubr
          83 callsubr
          -12 callsubr
          -621 -332 -22 callsubr
          205 -1646 -98 callsubr
          -107 callsubr
          -103 callsubr
        </CharString>
        <CharString name="Ocyrillic">
          81 callsubr
          -107 callsubr
          -103 callsubr
        </CharString>
        <CharString name="Odblgrave">
          1704 1030 1884 143 callsubr
          -367 -1583 -98 callsubr
          -107 callsubr
          -103 callsubr
        </CharString>
        <CharString name="Odieresis">
          1704 964 133 callsubr
          -400 -1593 -98 callsubr
          -107 callsubr
          -103 callsubr
        </CharString>
        <CharString name="Odieresismacron">
          1704 806 101 callsubr
          96 -495 rmoveto
          78 74 49 70 14 hvcurveto
          70 16 -53 48 -62 callsubr
          0 callsubr
          78 hhcurveto
          428 14 callsubr
          -15 53 -49 78 hhcurveto
          -366 -1581 -98 callsubr
          -107 callsubr
          -103 callsubr
        </CharString>
        <CharString name="Odotaccent">
          1704 1160 -65 callsubr
          -40 callsubr
          -205 -1572 -98 callsubr
          -107 callsubr
          -103 callsubr
        </CharString>
        <CharString name="Odotaccentmacron">
          1704 799 1853 -23 callgsubr
          37 callgsubr
          -203 -1571 -98 callsubr
          -107 callsubr
          -103 callsubr
        </CharString>
        <CharString name="Odotbelow">
          81 callsubr
          -107 callsubr
          hvcurveto
          -50 callsubr
          -28 183 rmoveto
          -126 -73 105 265 62 callsubr
          68 callgsubr
        </CharString>
        <CharString name="Ograve">
          1704 1141 40 callsubr
          106 callsubr
          -279 -1584 -98 callsubr
          -107 callsubr
          -103 callsubr
        </CharString>
        <CharString name="Ohookabove">
          1704 1213 -38 callsubr
          -18 callsubr
          146 callsubr
          -258 -1941 -98 callsubr
          -107 callsubr
          -103 callsubr
        </CharString>
        <CharString name="Ohorn">
          1754 234 646 rmoveto
          -50 callsubr
          -1 callsubr
          53 callsubr
        </CharString>
        <CharString name="Ohornacute">
          1754 1198 -78 callsubr
          -69 callsubr
          -1343 -1238 rmoveto
          -50 callsubr
          -1 callsubr
          53 callsubr
        </CharString>
        <CharString name="Ohorndotbelow">
          1754 234 646 rmoveto
          -50 callsubr
          -1 callsubr
          216 -81 203 -170 124 hvcurveto
          -8 46 52 -4 55 hhcurveto
          203 140 92 144 113 -72 107 -108 56 -92 callgsubr
          -169 -114 -129 -158 vhcurveto
          -137 -95 33 -163 hhcurveto
          -21 callgsubr
          494 -126 rmoveto
          62 callsubr
          -126 -73 105 265 vhcurveto
          128 -633 -80 callsubr
          -56 callsubr
        </CharString>
        <CharString name="Ohorngrave">
          1754 1141 40 callsubr
          106 callsubr
          -1000 -905 rmoveto
          -50 callsubr
          -1 callsubr
          53 callsubr
        </CharString>
        <CharString name="Ohornhookabove">
          1754 1213 -38 callsubr
          -18 callsubr
          146 callsubr
          -979 -1262 rmoveto
          -50 callsubr
          -1 callsubr
          53 callsubr
        </CharString>
        <CharString name="Ohorntilde">
          1754 1282 1561 rmoveto
          107 96 145 callsubr
          -4 callsubr
          110 callsubr
          -48 callsubr
          27 callsubr
          109 callsubr
          -1048 -915 rmoveto
          -50 callsubr
          -1 callsubr
          53 callsubr
        </CharString>
        <CharString name="Ohungarumlaut">
          1704 967 1884 -58 callgsubr
          256 callsubr
          -713 -1917 -98 callsubr
          -107 callsubr
          -103 callsubr
        </CharString>
        <CharString name="Oinvertedbreve">
          1704 1166 1935 -11 callgsubr
          9 callgsubr
          -211 -1968 -98 callsubr
          -107 callsubr
          -103 callsubr
        </CharString>
        <CharString name="Omacron">
          1704 803 -17 callsubr
          108 -1834 -98 callsubr
          -107 callsubr
          -103 callsubr
        </CharString>
        <CharString name="Omacronacute">
          1704 1602 -20 callsubr
          -50 -235 rmoveto
          789 hlineto
          35 159 rlineto
          -790 hlineto
          178 -1779 -98 callsubr
          -107 callsubr
          -103 callsubr
        </CharString>
        <CharString name="Omacrongrave">
          1704 812 -21 callsubr
          -110 -518 rmoveto
          789 hlineto
          35 159 rlineto
          -790 hlineto
          178 -1779 -98 callsubr
          -107 callsubr
          -103 callsubr
        </CharString>
        <CharString name="Omegagreek">
          1696 114 49 callgsubr
          186 165 234 callsubr
          -307 -317 -369 -214 159 -221 266 -75 vhcurveto
          -10 -53 -299 10 -69 56 -30 129 rlinecurve
          -114 hlineto
          endchar
        </CharString>
        <CharString name="Omegatonosgreek">
          2029 446 49 callgsubr
          187 164 234 callsubr
          -306 -317 -369 -214 158 -221 267 -75 vhcurveto
          -11 -53 -299 10 -69 56 -30 129 rlinecurve
          -113 hlineto
          -125 1029 71 callsubr
        </CharString>
        <CharString name="Omicrongreek">
          81 callsubr
          -107 callsubr
          -103 callsubr
        </CharString>
        <CharString name="Omicrontonosgreek">
          1996 1247 -33 rmoveto
          508 314 369 462 359 -230 320 -491 -507 -301 -369 -462 -14 hvcurveto
          -359 -10 241 -320 490 hhcurveto
          -886 1477 rmoveto
          -146 -428 236 0 324 412 rlineto
          16 vlineto
          444 -1294 rmoveto
          -125 -74 105 265 381 143 393 213 126 73 -105 -265 -381 -143 -393 -213 hvcurveto
          endchar
        </CharString>
        <CharString name="Oogonek">
          1704 871 -493 226 callsubr
        </CharString>
        <CharString name="Oogonekmacron">
          1704 803 -17 callsubr
          24 -2294 226 callsubr
        </CharString>
        <CharString name="Oslash">
          81 callsubr
          210 callsubr
        </CharString>
        <CharString name="Oslashacute">
          1704 1198 -78 callsubr
          -69 callsubr
          -622 -1917 -98 callsubr
          210 callsubr
        </CharString>
        <CharString name="Otilde">
          1704 1282 1561 rmoveto
          107 96 145 callsubr
          -4 callsubr
          110 callsubr
          -48 callsubr
          27 callsubr
          109 callsubr
          -327 -1594 -98 callsubr
          -107 callsubr
          -103 callsubr
        </CharString>
        <CharString name="Otildeacute">
          1704 1602 -20 callsubr
          495 -271 rmoveto
          150 68 callsubr
          138 callsubr
          -31 hvcurveto
          169 48 callsubr
          152 callsubr
          -333 -1584 -98 callsubr
          -107 callsubr
          -103 callsubr
        </CharString>
        <CharString name="Otildedieresis">
          1704 998 1845 rmoveto
          78 75 48 70 14 hvcurveto
          70 15 -53 49 -78 hhcurveto
          -21 hlineto
          -79 -73 -49 -70 -15 hvcurveto
          -70 -15 53 101 callgsubr
          -79 hhcurveto
          -21 hlineto
          -78 -73 -49 -70 -16 hvcurveto
          -70 -14 52 -48 78 hhcurveto
          -95 -294 rmoveto
          150 68 callsubr
          138 callsubr
          -31 hvcurveto
          169 48 callsubr
          152 callsubr
          -333 -1584 -98 callsubr
          -107 callsubr
          -103 callsubr
        </CharString>
        <CharString name="Otildemacron">
          1704 806 101 callsubr
          448 -492 rmoveto
          150 68 callsubr
          138 callsubr
          -31 hvcurveto
          169 48 callsubr
          152 callsubr
          -333 -1584 -98 callsubr
          -107 callsubr
          -103 callsubr
        </CharString>
        <CharString name="P">
          1565 858 hmoveto
          51 callsubr
        </CharString>
        <CharString name="Pacute">
          1565 1185 1885 rmoveto
          -193 -334 145 0 426 321 rlineto
          12 vlineto
          -705 -1884 rmoveto
          51 callsubr
        </CharString>
        <CharString name="Pdotaccent">
          1565 1146 1540 rmoveto
          -30 callsubr
          -99 -104 44 callsubr
          -288 -1540 rmoveto
          51 callsubr
        </CharString>
        <CharString name="Pecyrillic">
          1767 1596 267 rmoveto
          193 910 19 88 24 18 141 19 rlinecurve
          30 142 -1649 0 -30 -142 131 -23 -98 callgsubr
          -24 -17 45 callsubr
          -68 callsubr
          -123 22 -15 18 18 85 rlinecurve
          212 997 401 0 -212 -997 188 callsubr
          endchar
        </CharString>
        <CharString name="Phigreek">
          1925 230 718 rmoveto
          -35 -327 222 -148 428 -13 -18 -77 -24 -17 -126 -23 rrcurveto
          -26 -122 621 0 27 122 rlineto
          -116 21 -19 19 15 78 537 15 250 149 34 324 35 335 -273 143 -376 12 18 75 24 15 125 24 rrcurveto
          24 122 -621 0 -25 -122 rlineto
          114 -19 20 -20 -14 -75 -486 -14 -301 -146 -34 -331 rrcurveto
          472 8 rmoveto
          23 215 130 118 165 -1 rrcurveto
          -142 -669 -121 30 -75 112 20 195 rlinecurve
          828 -1 rmoveto
          -227 -25 -133 -117 -161 hhcurveto
          141 670 124 -30 72 -112 -18 -184 rlinecurve
          endchar
        </CharString>
        <CharString name="Pigreek">
          1753 1602 267 rmoveto
          192 907 18 85 20 24 149 19 rlinecurve
          30 142 -1655 0 -31 -142 133 -23 17 -17 -18 -85 rlinecurve
          -192 -910 -19 -85 -26 -18 -141 -22 -12 callgsubr
          -122 20 -16 20 18 85 rlinecurve
          212 1004 403 0 -212 -1004 -18 -85 -21 -20 -132 -20 rlinecurve
          -72 callsubr
          -137 18 -13 22 18 85 rlinecurve
          endchar
        </CharString>
        <CharString name="Psigreek">
          1985 611 hmoveto
          730 hlineto
          30 142 rlineto
          -149 21 -19 20 19 84 34 162 rcurveline
          381 24 190 149 138 367 62 168 rcurveline
          44 115 33 31 103 9 30 142 rcurveline
          6 -41 -78 6 -66 hhcurveto
          -216 -101 -74 -224 -84 hvcurveto
          -63 -172 -85 -226 -67 -106 -142 -34 rlinecurve
          119 567 19 84 18 18 121 23 rlinecurve
          30 142 -642 0 -31 -142 rlineto
          110 -23 14 -18 -18 -84 -119 -566 rcurveline
          -127 34 -21 106 10 225 8 169 rcurveline
          224 10 -71 77 -216 hhcurveto
          -66 -82 -6 -6 -41 hvcurveto
          -30 -142 99 -9 22 -31 -5 -115 rlinecurve
          -8 -168 -18 -367 127 -148 371 -25 rlinecurve
          -35 -162 -18 -84 -26 -20 -157 -21 rlinecurve
          endchar
        </CharString>
        <CharString name="Q">
          1704 1379 -434 rmoveto
          119 99 20 35 71 hvcurveto
          27 132 rlineto
          -125 -76 24 161 -148 hvcurveto
          -77 83 rlineto
          320 118 188 302 357 vvcurveto
          -107 callsubr
          vhcurveto
          -9 -308 176 -279 360 -73 144 -168 rcurveline
          -194 166 141 -58 167 hhcurveto
          -452 584 -47 callgsubr
        </CharString>
        <CharString name="R">
          1585 1120 hmoveto
          50 callsubr
          endchar
        </CharString>
        <CharString name="Racute">
          1585 1102 -78 callsubr
          46 callsubr
          -360 -1884 rmoveto
          50 callsubr
          endchar
        </CharString>
        <CharString name="Rcaron">
          1585 1307 -35 callsubr
          -14 callsubr
          -361 -1887 rmoveto
          50 callsubr
          endchar
        </CharString>
        <CharString name="Rcommaaccent">
          1585 1120 hmoveto
          50 callsubr
          -405 -1531 rmoveto
          227 93 75 callsubr
          76 callsubr
          -36 -19 -76 -42 -60 callgsubr
        </CharString>
        <CharString name="Rdblgrave">
          1585 934 1884 rmoveto
          -296 -10 hlineto
          194 -324 rlineto
          142 hlineto
          332 334 rmoveto
          -276 -10 hlineto
          65 -324 rlineto
          131 hlineto
          -106 -1550 rmoveto
          50 callsubr
          endchar
        </CharString>
        <CharString name="Rdotaccent">
          1585 1064 -65 callsubr
          78 callsubr
          56 -1539 rmoveto
          50 callsubr
          endchar
        </CharString>
        <CharString name="Rdotbelow">
          1585 1120 hmoveto
          50 callsubr
          -348 -1150 -80 callsubr
          -56 callsubr
        </CharString>
        <CharString name="Rdotbelowmacron">
          1585 706 153 callsubr
          369 -1801 rmoveto
          50 callsubr
          -348 -1150 -80 callsubr
          -56 callsubr
        </CharString>
        <CharString name="Rhogreek">
          1565 858 hmoveto
          51 callsubr
        </CharString>
        <CharString name="Rinvertedbreve">
          1585 1070 1935 rmoveto
          -208 -140 -127 -244 -7 hvcurveto
          139 hlineto
          87 15 84 49 107 hhcurveto
          97 67 -58 -70 hvcurveto
          -3 0 -3 -2 vvcurveto
          139 hlineto
          9 25 6 34 37 vvcurveto
          158 -1 -131 117 -176 hhcurveto
          50 -1935 rmoveto
          50 callsubr
          endchar
        </CharString>
        <CharString name="Rlinebelow">
          1585 1120 hmoveto
          50 callsubr
          -725 -1432 80 callsubr
        </CharString>
        <CharString name="S">
          1273 651 -34 113 callsubr
          endchar
        </CharString>
        <CharString name="Sacute">
          1273 1025 -78 callsubr
          46 callsubr
          -752 -1918 113 callsubr
          endchar
        </CharString>
        <CharString name="Sacutedotaccent">
          1273 1040 1798 rmoveto
          82 65 53 75 -2 -24 callgsubr
          2 hvcurveto
          -75 2 68 -53 82 hhcurveto
          327 -177 rmoveto
          41 32 callsubr
          93 -1568 113 callsubr
          endchar
        </CharString>
        <CharString name="Scaron">
          1273 1230 -35 callsubr
          -14 callsubr
          -753 -1921 113 callsubr
          endchar
        </CharString>
        <CharString name="Scarondotaccent">
          1273 1045 1822 rmoveto
          259 callsubr
          68 -52 82 hhcurveto
          372 -2 rmoveto
          -420 75 callgsubr
          -744 -1737 113 callsubr
          endchar
        </CharString>
        <CharString name="Scedilla">
          1273 512 -494 -54 callgsubr
          52 47 rlineto
          362 14 241 208 286 vvcurveto
          172 -87 123 -204 115 vhcurveto
          -76 42 rlineto
          -122 69 -54 50 85 vvcurveto
          93 85 65 116 164 99 -100 -206 8 vhcurveto
          131 hlineto
          67 356 rlineto
          65 -78 -173 75 -238 hhcurveto
          -450 -184 -257 -231 -183 83 -118 218 -123 hvcurveto
          75 -43 rlineto
          128 -73 39 -52 -86 vvcurveto
          -93 -80 -63 -129 -170 -132 112 189 -3 vhcurveto
          -131 hlineto
          -57 -377 76 -47 137 -46 172 -16 rlinecurve
          -92 -88 -11 callsubr
          54 callgsubr
          endchar
        </CharString>
        <CharString name="Schwa">
          1633 858 -34 rmoveto
          518 323 326 492 434 -314 259 -431 -168 -181 -39 -65 -130 hvcurveto
          -82 -384 rlineto
          136 hlineto
          206 99 127 92 149 hhcurveto
          202 86 -168 -293 -29 0 -29 -1 -27 hvcurveto
          -933 hlineto
          -28 -81 -15 -85 -79 vvcurveto
          -288 197 -242 446 vhcurveto
          -211 470 rmoveto
          45 4 46 11 48 vhcurveto
          513 hlineto
          -275 -40 -113 -152 -160 hhcurveto
          -140 -75 121 167 hvcurveto
          endchar
        </CharString>
        <CharString name="Scircumflex">
          1273 774 -71 callsubr
          -43 callsubr
          37 -1584 113 callsubr
          endchar
        </CharString>
        <CharString name="Scommaaccent">
          1273 651 -34 113 callsubr
          -142 -460 -63 callsubr
          33 callsubr
          -25 37 callsubr
          -55 callgsubr
        </CharString>
        <CharString name="Sdotaccent">
          1273 987 -65 callsubr
          78 callsubr
          -336 -1573 113 callsubr
          endchar
        </CharString>
        <CharString name="Sdotbelow">
          1273 651 -34 113 callsubr
          -84 -79 -80 callsubr
          -64 callsubr
        </CharString>
        <CharString name="Sdotbelowdotaccent">
          1273 987 -65 callsubr
          78 callsubr
          -336 -1573 113 callsubr
          -84 -79 -80 callsubr
          -64 callsubr
        </CharString>
        <CharString name="Shacyrillic">
          2605 454 1177 rmoveto
          -193 -910 -19 -88 -24 -18 -141 -19 rlinecurve
          -30 -142 2511 0 82 callgsubr
          25 17 141 23 -6 callsubr
          238 callsubr
        </CharString>
        <CharString name="Shchacyrillic">
          2626 196 callsubr
          2085 hlineto
          236 28 -50 -266 21 hvcurveto
          138 hlineto
          95 496 -211 0 212 997 18 85 25 17 141 23 -6 callsubr
          238 callsubr
        </CharString>
        <CharString name="Sigmagreek">
          107 callgsubr
          -136 346 -618 -554 -551 -30 -139 1230 0 135 576 rlineto
          -154 hlineto
          -244 -112 -63 -39 -220 hhcurveto
          -344 hlineto
          530 516 8 37 -241 436 244 -6 238 -6 29 -28 12 -220 rlinecurve
          130 hlineto
          endchar
        </CharString>
        <CharString name="Softsigncyrillic">
          1548 231 callsubr
          -492 -1 22 callgsubr
        </CharString>
        <CharString name="T">
          -27 callsubr
          endchar
        </CharString>
        <CharString name="Taugreek">
          -27 callsubr
          endchar
        </CharString>
        <CharString name="Tbar">
          1452 341 666 rmoveto
          293 hlineto
          -85 -400 -18 -84 -25 -20 -153 -21 rlinecurve
          -31 -142 157 callsubr
          85 400 294 0 31 148 -294 0 99 466 rlineto
          33 hlineto
          202 -6 37 -30 -222 vvcurveto
          131 hlineto
          81 422 -1366 0 69 callsubr
          hlineto
          -99 -466 rlineto
          -293 hlineto
          endchar
        </CharString>
        <CharString name="Tcaron">
          1452 1337 -35 callsubr
          127 -333 42 callsubr
          206 -443 rmoveto
          -1366 hlineto
          69 callsubr
          18 callsubr
          157 callsubr
          140 callsubr
          endchar
        </CharString>
        <CharString name="Tcedilla">
          1452 624 -69 callgsubr
          89 81 291 0 30 142 -144 21 -17 20 18 84 rlinecurve
          140 callsubr
          81 422 -1366 0 69 callsubr
          18 callsubr
          343 0 -121 -117 -23 -93 callgsubr
          206 callsubr
        </CharString>
        <CharString name="Tcircumflexbelow">
          -27 callsubr
          -1192 -1505 111 callsubr
        </CharString>
        <CharString name="Tcommaaccent">
          -27 callsubr
          -1013 -1516 rmoveto
          227 93 75 callsubr
          76 callsubr
          -37 -19 -75 -42 -60 callgsubr
        </CharString>
        <CharString name="Tdotaccent">
          1452 1093 1539 rmoveto
          -30 callsubr
          -99 -104 44 callsubr
          623 -95 rmoveto
          -1366 hlineto
          69 callsubr
          18 callsubr
          157 callsubr
          140 callsubr
          endchar
        </CharString>
        <CharString name="Tdotbelow">
          -27 callsubr
          -956 -1135 -80 callsubr
          -56 callsubr
        </CharString>
        <CharString name="Tecyrillic">
          -27 callsubr
          endchar
        </CharString>
        <CharString name="Thetagreek">
          1806 973 -34 rmoveto
          500 365 334 438 41 hvcurveto
          436 41 -292 304 -489 hhcurveto
          -500 -1 -365 -333 -41 -438 rrcurveto
          -436 -41 292 -304 489 hhcurveto
          24 163 rmoveto
          -211 -95 229 360 34 hvcurveto
          364 35 129 233 226 hhcurveto
          213 94 -228 -361 -34 hvcurveto
          -368 -35 -130 -229 -226 hhcurveto
          -237 322 rmoveto
          107 hlineto
          136 52 27 17 60 hhcurveto
          50 hlineto
          59 21 -17 -136 -6 hvcurveto
          106 hlineto
          109 516 rlineto
          -107 hlineto
          -136 -52 -27 -17 -59 hhcurveto
          -50 hlineto
          -59 -21 17 136 6 hvcurveto
          -107 hlineto
          endchar
        </CharString>
        <CharString name="Thorn">
          1545 227 265 rmoveto
          -18 -84 -25 -18 -141 -23 rrcurveto
          -30 -142 781 0 31 142 rlineto
          -131 23 -17 18 18 84 10 48 rcurveline
          183 hlineto
          333 383 118 344 227 -172 145 -366 hvcurveto
          -184 hlineto
          6 28 18 85 24 17 141 23 rlinecurve
          30 142 -781 0 -30 -20 callgsubr
          694 -406 rmoveto
          -134 -96 -150 -212 -7 vhcurveto
          -67 -3 108 510 66 -3 rlineto
          131 -5 70 -95 -113 vvcurveto
          endchar
        </CharString>
        <CharString name="Tlinebelow">
          -27 callsubr
          -1333 -1417 80 callsubr
        </CharString>
        <CharString name="Tsecyrillic">
          1764 196 callsubr
          1231 hlineto
          237 29 -50 -266 21 hvcurveto
          137 hlineto
          94 496 -220 0 213 997 18 85 24 17 141 23 96 callsubr
          123 -22 15 -18 -18 -85 rlinecurve
          -211 -997 -402 193 callsubr
        </CharString>
        <CharString name="Tshecyrillic">
          2005 1717 1444 rmoveto
          -1367 hlineto
          -97 -422 rlineto
          130 hlineto
          95 223 44 27 190 8 rrcurveto
          34 18 callsubr
          807 0 30 142 274 callsubr
          55 8 69 hhcurveto
          143 67 -79 -199 -42 hvcurveto
          -77 -355 626 0 30 142 rlineto
          -135 15 -9 23 15 80 17 85 rcurveline
          352 69 -172 149 -382 hhcurveto
          -127 -88 -23 -25 -78 hvcurveto
          80 callgsubr
          endchar
        </CharString>
        <CharString name="U">
          1587 836 -34 -85 callsubr
        </CharString>
        <CharString name="Uacute">
          1587 1255 -78 callsubr
          -69 callsubr
          -798 -1918 -85 callsubr
        </CharString>
        <CharString name="Ubreve">
          1587 1234 90 callsubr
          -97 -68 23 callsubr
          24 callsubr
          -398 -1598 -85 callsubr
        </CharString>
        <CharString name="Ubrevecyrillic">
          1564 1203 -35 callgsubr
          -29 callgsubr
          56 callgsubr
          -103 -66 -69 -101 -119 93 -104 188 vhcurveto
          -985 -1376 213 callsubr
        </CharString>
        <CharString name="Ucaron">
          1587 1461 66 callsubr
          42 callsubr
          -798 -1921 -85 callsubr
        </CharString>
        <CharString name="Ucircumflex">
          1587 1004 -71 callsubr
          136 61 callgsubr
          -8 -1584 -85 callsubr
        </CharString>
        <CharString name="Ucircumflexbelow">
          118 callsubr
          -283 -449 rmoveto
          226 198 callsubr
        </CharString>
        <CharString name="Ucyrillic">
          1564 218 175 213 callsubr
        </CharString>
        <CharString name="Udblgrave">
          1587 1087 1884 143 callsubr
          -543 -1584 -85 callsubr
        </CharString>
        <CharString name="Udieresis">
          1587 1021 1560 rmoveto
          19 callsubr
          55 callgsubr
          -577 -1594 -85 callsubr
        </CharString>
        <CharString name="Udieresisacute">
          1587 1659 -20 callsubr
          143 -274 rmoveto
          -49 callsubr
          -62 callsubr
          0 callsubr
          79 hhcurveto
          427 14 callsubr
          -14 52 -49 78 hhcurveto
          -542 -1582 -85 callsubr
        </CharString>
        <CharString name="Udieresisbelow">
          118 callsubr
          -301 -435 240 callsubr
        </CharString>
        <CharString name="Udieresiscaron">
          1587 1697 77 callgsubr
          89 0 381 151 rlineto
          -680 -435 rmoveto
          -49 callsubr
          -62 callsubr
          0 callsubr
          79 hhcurveto
          427 14 callsubr
          -14 52 -49 78 hhcurveto
          -542 -1582 -85 callsubr
        </CharString>
        <CharString name="Udieresisgrave">
          1587 869 -21 callsubr
          83 -557 rmoveto
          -49 callsubr
          -62 callsubr
          0 callsubr
          79 hhcurveto
          427 14 callsubr
          -14 52 -49 78 hhcurveto
          -542 -1582 -85 callsubr
        </CharString>
        <CharString name="Udieresismacron">
          1587 863 101 callsubr
          96 -495 rmoveto
          -49 callsubr
          -62 callsubr
          0 callsubr
          79 hhcurveto
          427 14 callsubr
          -14 52 -49 78 hhcurveto
          -542 -1582 -85 callsubr
        </CharString>
        <CharString name="Udotbelow">
          118 callsubr
          -48 -79 -53 callgsubr
        </CharString>
        <CharString name="Ugrave">
          1587 1198 40 callsubr
          106 callsubr
          -455 -1585 -85 callsubr
        </CharString>
        <CharString name="Uhookabove">
          1587 1270 -38 callsubr
          -18 callsubr
          -49 -46 -47 -101 -60 hvcurveto
          142 hlineto
          177 -30 callgsubr
          -434 -1942 -85 callsubr
        </CharString>
        <CharString name="Uhorn">
          1755 316 653 rmoveto
          -10 callsubr
          54 callsubr
        </CharString>
        <CharString name="Uhornacute">
          1755 1241 -78 callsubr
          46 callsubr
          -1303 -1231 rmoveto
          -10 callsubr
          54 callsubr
        </CharString>
        <CharString name="Uhorndotbelow">
          1755 316 653 rmoveto
          -10 callsubr
          351 245 206 399 86 hvcurveto
          163 749 rlineto
          -2 19 19 -2 19 hhcurveto
          189 124 91 153 121 -75 108 -89 52 -92 callgsubr
          -161 -100 -137 -213 vhcurveto
          -101 hlineto
          -30 -142 rlineto
          56 callsubr
          121 -23 16 -19 -19 -85 rlinecurve
          335 -1288 -72 callgsubr
        </CharString>
        <CharString name="Uhorngrave">
          1755 1184 40 callsubr
          318 -320 rlineto
          139 hlineto
          -961 -898 rmoveto
          -10 callsubr
          54 callsubr
        </CharString>
        <CharString name="Uhornhookabove">
          1755 1256 -38 callsubr
          -18 callsubr
          -49 -46 -47 -102 -60 hvcurveto
          -18 callgsubr
          -940 -1255 rmoveto
          -10 callsubr
          54 callsubr
        </CharString>
        <CharString name="Uhorntilde">
          1755 1325 1561 rmoveto
          107 95 65 265 34 hvcurveto
          -145 hlineto
          -86 -13 -25 -24 -34 hhcurveto
          -20 -19 -4 callsubr
          -53 23 -63 hhcurveto
          -108 -95 -65 -48 callsubr
          14 25 24 33 hhcurveto
          21 19 -9 -14 17 hvcurveto
          23 109 callsubr
          -1009 -908 rmoveto
          -10 callsubr
          54 callsubr
        </CharString>
        <CharString name="Uhungarumlaut">
          1587 1024 1884 -58 callgsubr
          -163 -334 158 0 324 324 rlineto
          10 vlineto
          -889 -1918 -85 callsubr
        </CharString>
        <CharString name="Uinvertedbreve">
          1587 1223 1935 rmoveto
          -207 -39 callgsubr
          16 83 49 107 hhcurveto
          97 68 -58 -70 -3 0 -3 -1 -2 hvcurveto
          140 hlineto
          9 25 5 34 37 vvcurveto
          158 -131 117 -177 vhcurveto
          -387 -1969 -85 callsubr
        </CharString>
        <CharString name="Umacron">
          1587 860 -17 callsubr
          -68 -1835 -85 callsubr
        </CharString>
        <CharString name="Umacrondieresis">
          1587 1055 1845 rmoveto
          79 74 48 70 14 hvcurveto
          70 16 -54 49 -78 195 callsubr
          -16 hvcurveto
          -70 -14 52 -48 78 hhcurveto
          -612 -258 rmoveto
          733 hlineto
          34 159 rlineto
          -732 hlineto
          -27 -1780 -85 callsubr
        </CharString>
        <CharString name="Uogonek">
          1587 819 -50 callgsubr
          -14 -22 -7 -25 hhcurveto
          -65 -44 62 92 50 13 44 17 28 hvcurveto
          295 39 203 202 78 357 rrcurveto
          132 604 20 85 22 19 159 callsubr
          56 callsubr
          121 -23 16 -19 -19 -85 rlinecurve
          -110 -522 -91 -429 212 -216 303 -36 rlinecurve
          -139 -71 -76 -89 -97 vvcurveto
          -122 121 -86 173 vhcurveto
          endchar
        </CharString>
        <CharString name="Upsilondieresisgreek">
          1489 943 133 callsubr
          -884 -439 -66 callsubr
        </CharString>
        <CharString name="Upsilongreek">
          1489 450 1121 -66 callsubr
        </CharString>
        <CharString name="Upsilontonosgreek">
          2009 969 1121 rmoveto
          184 169 callsubr
          45 -137 rlinecurve
          -608 323 71 callsubr
        </CharString>
        <CharString name="Uring">
          1587 929 32 callgsubr
          -161 -214 15 callgsubr
          -316 -1786 -85 callsubr
        </CharString>
        <CharString name="Utilde">
          1587 1339 1561 rmoveto
          108 95 145 callsubr
          9 14 -16 hvcurveto
          -24 18 rlineto
          39 -52 -54 23 -63 hhcurveto
          -108 -94 -65 -48 callsubr
          27 callsubr
          -18 rlineto
          -38 53 54 -24 62 hhcurveto
          -503 -1595 -85 callsubr
        </CharString>
        <CharString name="Utildeacute">
          1587 1659 -20 callsubr
          495 -271 rmoveto
          150 107 90 145 31 hvcurveto
          -169 hlineto
          -43 -9 -29 -21 -47 hhcurveto
          -27 -31 138 callsubr
          -30 hvcurveto
          168 48 callsubr
          152 callsubr
          -509 -1585 -85 callsubr
        </CharString>
        <CharString name="Utildebelow">
          118 callsubr
          75 -435 rmoveto
          118 101 74 callsubr
          -21 11 16 -22 103 callgsubr
          -35 hvcurveto
          150 hlineto
          98 15 29 26 37 hhcurveto
          25 21 266 callsubr
        </CharString>
        <CharString name="V">
          1561 433 1097 rmoveto
          227 callsubr
          endchar
        </CharString>
        <CharString name="Vdotbelow">
          1561 433 1097 rmoveto
          227 callsubr
          306 -1210 rmoveto
          -104 -84 -84 -101 -94 74 -77 99 104 -64 callsubr
        </CharString>
        <CharString name="Vecyrillic">
          1600 1622 448 135 callsubr
        </CharString>
        <CharString name="Vtilde">
          1561 1327 106 callgsubr
          -21 -18 9 14 -17 hvcurveto
          -24 18 rlineto
          39 -52 -54 23 -63 hhcurveto
          -108 -94 -65 -48 callsubr
          27 callsubr
          -18 rlineto
          -38 53 54 -24 62 hhcurveto
          -894 -464 rmoveto
          227 callsubr
          endchar
        </CharString>
        <CharString name="W">
          2343 423 1097 6 callsubr
        </CharString>
        <CharString name="Wacute">
          2343 1708 -78 callsubr
          46 callsubr
          -1663 -787 6 callsubr
        </CharString>
        <CharString name="Wcircumflex">
          2343 1457 -71 callsubr
          -43 callsubr
          -874 -453 6 callsubr
        </CharString>
        <CharString name="Wdieresis">
          2343 1473 1560 rmoveto
          204 callsubr
          26 callsubr
          -85 -91 -15 callgsubr
          -1442 -463 6 callsubr
        </CharString>
        <CharString name="Wdotaccent">
          2343 1669 1539 rmoveto
          -30 callsubr
          -98 -105 44 callsubr
          -1246 -442 6 callsubr
        </CharString>
        <CharString name="Wdotbelow">
          2343 423 1097 rmoveto
          97 -1097 390 0 454 883 61 -883 404 0 557 1096 83 166 34 23 117 17 rlinecurve
          30 142 -500 0 -31 -142 130 -12 230 callsubr
          696 -1210 -80 callsubr
          -64 callsubr
        </CharString>
        <CharString name="Wgrave">
          2343 1651 40 callsubr
          318 -320 rlineto
          139 hlineto
          -1321 -454 6 callsubr
        </CharString>
        <CharString name="X">
          1542 368 353 49 callsubr
        </CharString>
        <CharString name="Xdieresis">
          1542 1040 1560 rmoveto
          19 callsubr
          55 callgsubr
          -1064 -1207 49 callsubr
        </CharString>
        <CharString name="Xdotaccent">
          1542 1236 21 callsubr
          -86 -83 -104 -93 74 -75 101 hvcurveto
          -868 -1186 49 callsubr
        </CharString>
        <CharString name="Xigreek">
          1483 1697 1444 rmoveto
          -1306 hlineto
          91 callgsubr
          441 hlineto
          225 38 -13 -221 6 hvcurveto
          136 hlineto
          -805 -273 rmoveto
          145 29 callgsubr
          -145 30 callgsubr
          606 -630 rmoveto
          79 callgsubr
          -445 hlineto
          -224 -42 22 247 -8 hvcurveto
          -136 hlineto
          -99 -576 rlineto
          endchar
        </CharString>
        <CharString name="Xigreek.1">
          1489 73 hmoveto
          1334 hlineto
          79 callgsubr
          -158 hlineto
          68 323 rlineto
          9 29 callgsubr
          -8 hlineto
          70 330 rlineto
          157 hlineto
          225 38 -13 -221 6 hvcurveto
          136 hlineto
          91 541 -1306 0 91 callgsubr
          160 hlineto
          -69 -330 rlineto
          -14 30 callgsubr
          12 hlineto
          -67 -323 rlineto
          -164 hlineto
          -224 -42 22 247 -8 hvcurveto
          -136 hlineto
          endchar
        </CharString>
        <CharString name="Y">
          1489 450 1121 -66 callsubr
        </CharString>
        <CharString name="Yacute">
          1489 1177 -78 callsubr
          -69 callsubr
          -1106 -763 -66 callsubr
        </CharString>
        <CharString name="Ycircumflex">
          1489 926 -71 callsubr
          63 callsubr
          -316 -429 -66 callsubr
        </CharString>
        <CharString name="Ydieresis">
          1489 943 133 callsubr
          -884 -439 -66 callsubr
        </CharString>
        <CharString name="Ydotaccent">
          1489 1139 -65 callsubr
          -40 callsubr
          -689 -418 -66 callsubr
        </CharString>
        <CharString name="Ydotbelow">
          1489 450 1121 rmoveto
          183 169 callsubr
          46 -137 rlinecurve
          259 -1234 273 callsubr
        </CharString>
        <CharString name="Yericyrillic">
          2350 231 callsubr
          586 -266 -91 callsubr
          141 23 rlinecurve
          31 142 -99 callsubr
          -95 callsubr
          -101 callsubr
          45 callsubr
          -93 callsubr
          103 callsubr
          -1078 265 22 callgsubr
        </CharString>
        <CharString name="Ygrave">
          1489 1120 40 callsubr
          106 callsubr
          -763 -430 -66 callsubr
        </CharString>
        <CharString name="Yhookabove">
          1489 1192 -38 callsubr
          -18 callsubr
          146 callsubr
          -742 -787 -66 callsubr
        </CharString>
        <CharString name="Yicyrillic">
          877 597 1560 rmoveto
          90 74 74 90 -80 callgsubr
          hvcurveto
          -82 -1 64 -67 87 hhcurveto
          26 callsubr
          -86 -90 -15 callgsubr
          -260 -1293 -91 callsubr
          -100 callsubr
          -99 callsubr
          -95 callsubr
          -101 callsubr
          -94 callsubr
          -93 callsubr
          -83 callsubr
        </CharString>
        <CharString name="Ymacron">
          1489 782 -17 callsubr
          -376 -680 -66 callsubr
        </CharString>
        <CharString name="Ytilde">
          1489 1261 1561 rmoveto
          108 95 145 callsubr
          -4 callsubr
          110 callsubr
          -48 callsubr
          27 callsubr
          109 callsubr
          -811 -440 -66 callsubr
        </CharString>
        <CharString name="Z">
          1325 1256 hmoveto
          22 callsubr
        </CharString>
        <CharString name="Zacute">
          1325 1028 -45 callgsubr
          -151 -1884 rmoveto
          22 callsubr
        </CharString>
        <CharString name="Zcaron">
          1325 1234 66 callsubr
          42 callsubr
          -151 -1887 rmoveto
          22 callsubr
        </CharString>
        <CharString name="Zcircumflex">
          1325 777 1550 rmoveto
          215 -43 callsubr
          638 -1550 rmoveto
          22 callsubr
        </CharString>
        <CharString name="Zdotaccent">
          1325 990 21 callsubr
          44 callsubr
          266 -1539 rmoveto
          22 callsubr
        </CharString>
        <CharString name="Zdotbelow">
          59 callgsubr
          548 -113 273 callsubr
        </CharString>
        <CharString name="Zecyrillic">
          1449 676 -34 rmoveto
          417 365 186 324 177 -146 106 -218 26 hvcurveto
          260 41 182 119 210 vvcurveto
          218 -203 105 -333 -234 -187 -57 -79 -129 vhcurveto
          -86 -369 rlineto
          136 hlineto
          240 105 121 75 150 hhcurveto
          119 69 -64 -118 -187 -119 -98 -180 hvcurveto
          -150 hlineto
          -37 -173 rlineto
          149 hlineto
          152 85 -63 -133 -164 -112 -131 -206 -1 hvcurveto
          -160 -103 72 248 -5 hvcurveto
          -136 hlineto
          -63 -373 rlineto
          -72 96 184 -65 217 hhcurveto
          endchar
        </CharString>
        <CharString name="Zetagreek">
          1325 1256 hmoveto
          22 callsubr
        </CharString>
        <CharString name="Zhecyrillic">
          2332 525 hmoveto
          468 640 83 0 -79 -373 -18 -85 -25 -17 -143 -23 rlinecurve
          -30 -142 785 0 31 142 -133 23 -18 17 18 85 rlinecurve
          79 373 84 0 194 -640 510 0 29 136 -60 30 -21 33 -77 234 rlinecurve
          -179 541 96 84 223 192 60 29 149 23 rlinecurve
          30 142 -584 0 -31 -142 117 -16 16 -39 -110 -108 rlinecurve
          -328 -327 -81 0 77 365 19 85 25 17 -100 callsubr
          -786 0 -30 -142 134 -14 17 -26 -18 -85 rlinecurve
          -78 -365 -79 0 -192 327 -64 110 36 37 123 16 rlinecurve
          28 142 -587 0 -28 -142 136 -22 51 -27 132 -195 rlinecurve
          55 -81 -411 -544 rlineto
          -175 -233 -32 -35 -71 -29 -28 -136 rcurveline
          endchar
        </CharString>
        <CharString name="Zlinebelow">
          59 callgsubr
          171 -395 -57 callsubr
        </CharString>
        <CharString name="a">
          1361 -73 callsubr
          -102 callsubr
        </CharString>
        <CharString name="a.dnum">
          895 125 220 rmoveto
          -153 85 -82 110 105 77 60 95 39 vhcurveto
          -3 -11 0 -12 -12 vvcurveto
          -79 48 -37 78 95 83 40 52 262 callsubr
          54 12 hvcurveto
          82 388 -164 0 -98 -77 rlineto
          50 -24 -56 42 -95 hhcurveto
          -191 -155 -167 -251 2 hvcurveto
          289 9 rmoveto
          109 -2 34 167 96 hhcurveto
          30 16 -12 -13 5 hvcurveto
          -53 -247 rlineto
          -54 -12 -27 -35 -37 hhcurveto
          -27 -21 21 64 -2 hvcurveto
          endchar
        </CharString>
        <CharString name="a.numr">
          895 253 821 rmoveto
          -153 85 -81 110 105 76 59 95 39 vhcurveto
          -2 -10 -1 -13 -12 vvcurveto
          -78 49 -38 78 94 84 40 53 47 vhcurveto
          20 93 rlineto
          -8 -14 -19 -5 -20 hhcurveto
          -33 -11 19 54 11 hvcurveto
          83 388 -164 0 -99 -76 rlineto
          49 -24 -55 43 -95 hhcurveto
          -192 -154 -168 -251 2 hvcurveto
          288 99 callgsubr
          -52 -247 rlineto
          -54 -12 -28 -36 -37 hhcurveto
          -27 -21 21 64 -2 hvcurveto
          endchar
        </CharString>
        <CharString name="a.sups">
          895 288 988 rmoveto
          -153 85 -81 110 105 77 59 95 39 vhcurveto
          -3 -10 0 -12 -12 vvcurveto
          -79 48 -37 79 94 83 39 53 262 callsubr
          53 12 hvcurveto
          82 388 -164 0 -98 -76 rlineto
          49 -24 -56 43 -95 hhcurveto
          -191 -154 -167 -252 1 hvcurveto
          289 99 callgsubr
          -53 -247 rlineto
          -54 -11 -28 -36 -37 hhcurveto
          -27 -21 22 63 -2 hvcurveto
          endchar
        </CharString>
        <CharString name="aacute">
          1361 967 -84 callsubr
          -81 callsubr
          -1260 -1245 -106 callsubr
          -102 callsubr
        </CharString>
        <CharString name="abreve">
          1361 945 1188 rmoveto
          234 -38 callgsubr
          -33 callgsubr
          -101 callgsubr
          148 -136 200 vhcurveto
          -771 -819 -106 callsubr
          -102 callsubr
        </CharString>
        <CharString name="abreveacute">
          1361 1363 -19 callsubr
          309 -358 rmoveto
          241 177 120 204 37 hvcurveto
          -164 hlineto
          -67 -20 -98 99 callsubr
          8 hvcurveto
          -164 89 callsubr
          -705 -766 -106 callsubr
          -102 callsubr
        </CharString>
        <CharString name="abrevecyrillic">
          1361 890 236 callsubr
          -716 -818 -106 callsubr
          -102 callsubr
        </CharString>
        <CharString name="abrevedotbelow">
          1361 945 1188 rmoveto
          234 -38 callgsubr
          -33 callgsubr
          -101 callgsubr
          148 -136 200 vhcurveto
          -771 -819 -106 callsubr
          -76 callsubr
          57 callsubr
          68 -865 -82 callsubr
          139 callsubr
        </CharString>
        <CharString name="abrevegrave">
          1361 592 -31 callsubr
          107 callsubr
          238 -691 rmoveto
          241 177 120 204 37 hvcurveto
          -164 hlineto
          -67 -20 -98 99 callsubr
          8 hvcurveto
          -164 89 callsubr
          -705 -766 -106 callsubr
          -102 callsubr
        </CharString>
        <CharString name="abrevehookabove">
          1361 1009 1822 rmoveto
          -95 -104 -34 -48 -71 hvcurveto
          -22 -100 rlineto
          16 42 68 14 52 hhcurveto
          91 35 -30 -40 -8 hvcurveto
          -9 -39 -49 -30 -109 -20 rrcurveto
          106 -78 172 33 106 68 24 108 rlinecurve
          108 22 -91 72 -160 hhcurveto
          -130 -687 rmoveto
          241 177 120 204 37 hvcurveto
          -164 hlineto
          -67 -20 -98 99 callsubr
          8 hvcurveto
          -164 89 callsubr
          -705 -766 -106 callsubr
          -102 callsubr
        </CharString>
        <CharString name="abrevetilde">
          1361 1115 171 callsubr
          -236 -383 rmoveto
          241 177 120 204 37 hvcurveto
          -164 hlineto
          -67 -20 -98 99 callsubr
          8 hvcurveto
          -164 89 callsubr
          -705 -766 -106 callsubr
          -102 callsubr
        </CharString>
        <CharString name="acaron">
          1361 1185 -70 callsubr
          149 callsubr
          -1189 -1245 -106 callsubr
          -102 callsubr
        </CharString>
        <CharString name="acircumflex">
          1361 688 73 callsubr
          -107 callgsubr
          -336 -818 -106 callsubr
          -102 callsubr
        </CharString>
        <CharString name="acircumflexacute">
          1361 1363 -19 callsubr
          -71 -348 rmoveto
          405 103 362 -103 29 137 -301 -37 callsubr
          -354 -913 -106 callsubr
          -102 callsubr
        </CharString>
        <CharString name="acircumflexdotbelow">
          1361 688 73 callsubr
          -107 callgsubr
          -336 -818 -106 callsubr
          -76 callsubr
          57 callsubr
          68 -865 -82 callsubr
          139 callsubr
        </CharString>
        <CharString name="acircumflexgrave">
          1361 592 -31 callsubr
          107 callsubr
          -100 callgsubr
          29 137 -301 -37 callsubr
          -354 -913 -106 callsubr
          -102 callsubr
        </CharString>
        <CharString name="acircumflexhookabove">
          1361 1317 -95 callgsubr
          -21 -100 rlineto
          16 41 68 14 52 hhcurveto
          92 34 -30 -40 -8 hvcurveto
          -9 -39 -26 callgsubr
          107 163 callsubr
          -818 -677 rmoveto
          405 103 362 -103 29 137 -301 -37 callsubr
          -354 -913 -106 callsubr
          -102 callsubr
        </CharString>
        <CharString name="acircumflextilde">
          1361 1115 171 callsubr
          -616 -373 rmoveto
          405 103 362 -103 29 137 -301 -37 callsubr
          -354 -913 -106 callsubr
          -102 callsubr
        </CharString>
        <CharString name="acute">
          1024 841 -84 callsubr
          -81 callsubr
          endchar
        </CharString>
        <CharString name="acutecmb">
          0 329 -84 callsubr
          -81 callsubr
          endchar
        </CharString>
        <CharString name="acutecmb.short">
          0 314 1491 rmoveto
          -193 -333 146 0 426 321 rlineto
          12 vlineto
          endchar
        </CharString>
        <CharString name="acutedotaccentcmb">
          35 callgsubr
          306 -226 rmoveto
          49 230 -814 -201 -28 -131 rlineto
          endchar
        </CharString>
        <CharString name="acutedotaccentcmb.short">
          0 412 1798 rmoveto
          83 64 53 75 -1 hvcurveto
          76 -2 -68 52 -82 hhcurveto
          -83 -64 -52 -76 2 hvcurveto
          -75 1 68 -53 82 hhcurveto
          327 -177 rmoveto
          42 32 callsubr
          endchar
        </CharString>
        <CharString name="acyrillic">
          1361 -73 callsubr
          -102 callsubr
        </CharString>
        <CharString name="adblgrave">
          1361 772 -2 callsubr
          77 callsubr
          -961 -818 -106 callsubr
          -102 callsubr
        </CharString>
        <CharString name="adieresis">
          1361 668 82 callsubr
          -82 84 -108 -116 95 callsubr
          -8 callsubr
          -96 callgsubr
          -1013 -828 -106 callsubr
          -102 callsubr
        </CharString>
        <CharString name="adieresismacron">
          1361 581 41 callsubr
          60 -575 rmoveto
          82 -13 callsubr
          -22 hlineto
          -82 -78 -57 -83 -19 hvcurveto
          -82 -17 54 -58 82 hhcurveto
          451 hmoveto
          3 callsubr
          18 -55 13 callsubr
          -912 -791 -106 callsubr
          -102 callsubr
        </CharString>
        <CharString name="adotaccent">
          1361 928 -75 callsubr
          98 -51 callsubr
          -99 34 callsubr
          -754 -816 -106 callsubr
          -102 callsubr
        </CharString>
        <CharString name="adotbelow">
          1361 -73 callsubr
          -76 callsubr
          57 callsubr
          68 -865 -82 callsubr
          139 callsubr
        </CharString>
        <CharString name="adotmacron">
          1361 578 1533 29 callsubr
          41 callgsubr
          -742 -786 -106 callsubr
          -102 callsubr
        </CharString>
        <CharString name="ae">
          1700 249 798 166 callsubr
        </CharString>
        <CharString name="aeacute">
          1700 1184 -84 callsubr
          -81 callsubr
          -1402 -816 166 callsubr
        </CharString>
        <CharString name="aemacron">
          1700 749 154 callsubr
          -549 -693 166 callsubr
        </CharString>
        <CharString name="agrave">
          1361 969 -33 callsubr
          370 -411 rlineto
          172 hlineto
          -884 -818 -106 callsubr
          -102 callsubr
        </CharString>
        <CharString name="ahookabove">
          1361 1000 -57 callgsubr
          -42 callgsubr
          111 callgsubr
          -130 vhcurveto
          -826 -1249 -106 callsubr
          -102 callsubr
        </CharString>
        <CharString name="ainvertedbreve">
          1361 937 -52 callgsubr
          161 hlineto
          94 17 95 53 119 hhcurveto
          109 75 -65 -77 hvcurveto
          -2 0 -2 -1 vvcurveto
          150 callsubr
          -199 vhcurveto
          -763 -1243 -106 callsubr
          -102 callsubr
        </CharString>
        <CharString name="alphagreek">
          1398 514 -24 209 callsubr
        </CharString>
        <CharString name="alphatonosgreek">
          1398 912 -84 callgsubr
          -812 -1638 209 callsubr
        </CharString>
        <CharString name="amacron">
          1361 531 -51 callgsubr
          -407 -1122 -106 callsubr
          -102 callsubr
        </CharString>
        <CharString name="ampersand">
          1658 107 357 rmoveto
          -214 147 -177 297 168 142 64 146 156 vhcurveto
          149 -175 464 -1 21 96 -100 103 -92 107 -98 115 rlinecurve
          -28 34 114 102 177 157 44 25 115 12 rlinecurve
          28 142 -496 0 -28 -142 122 -16 5 -28 -85 -85 rlinecurve
          -74 -74 -247 293 rlineto
          248 70 121 101 148 vvcurveto
          192 -173 126 -296 -311 -198 -164 -243 -1 vhcurveto
          -108 35 -83 72 -99 vhcurveto
          -271 -69 -127 -144 -211 vvcurveto
          695 810 rmoveto
          79 50 43 70 72 40 -53 -83 -78 -37 -71 -79 -56 vhcurveto
          -80 98 -36 55 66 vvcurveto
          -282 -668 rmoveto
          70 26 57 51 41 vhcurveto
          335 -392 rlineto
          -21 -40 -40 -9 -42 hhcurveto
          -168 -122 107 147 hvcurveto
          endchar
        </CharString>
        <CharString name="anoteleiagreek">
          642 497 629 -104 callgsubr
          -63 callgsubr
          endchar
        </CharString>
        <CharString name="aogonek">
          1361 -73 callsubr
          -76 callsubr
          73 -66 126 6 5 1 5 hhcurveto
          -195 -101 -80 -84 -107 vvcurveto
          -114 99 -68 147 104 106 32 38 39 vhcurveto
          30 137 rlineto
          -11 -17 -26 -6 -30 hhcurveto
          -43 -34 31 59 96 81 107 156 134 hvcurveto
          30 142 rlineto
          -18 -26 -33 98 callsubr
          148 696 -250 0 -153 -122 rlineto
          80 -38 -90 67 -151 hhcurveto
          -313 -247 -294 -414 hvcurveto
          105 callsubr
        </CharString>
        <CharString name="approxequal">
          1322 1096 911 rmoveto
          -149 -138 207 -224 hhcurveto
          -218 -149 -178 -322 -25 hvcurveto
          230 hlineto
          142 20 56 66 91 149 138 -208 224 hhcurveto
          218 149 179 321 25 hvcurveto
          -230 hlineto
          -142 -21 -55 -65 -91 hhcurveto
          -112 -529 rmoveto
          -150 -138 207 -223 hhcurveto
          -219 -148 -178 -322 -26 hvcurveto
          231 hlineto
          142 19 57 114 callgsubr
          179 321 26 hvcurveto
          -231 hlineto
          -142 -20 -56 -65 -90 hhcurveto
          endchar
        </CharString>
        <CharString name="aring">
          1361 600 173 callsubr
          -673 -1018 -106 callsubr
          -102 callsubr
        </CharString>
        <CharString name="aringacute">
          1361 1364 1600 rmoveto
          48 42 callgsubr
          23 hvcurveto
          108 23 -102 71 -175 hhcurveto
          -95 hlineto
          -174 -132 -71 -108 -23 hvcurveto
          -108 -23 102 -71 174 48 callgsubr
          47 23 -22 -34 -7 hvcurveto
          -34 -7 -33 -22 -47 hhcurveto
          -749 -886 -106 callsubr
          -102 callsubr
        </CharString>
        <CharString name="aringbelow">
          1361 -73 callsubr
          -76 callsubr
          57 callsubr
          -266 -680 176 callsubr
          46 30 -28 -45 3 hvcurveto
          -58 3 -46 -33 -55 hhcurveto
          -46 -30 28 45 -3 hvcurveto
          endchar
        </CharString>
        <CharString name="asciicircum">
          1322 826 1444 rmoveto
          -563 -606 169 -152 494 481 296 -481 193 152 -304 606 rlineto
          endchar
        </CharString>
        <CharString name="asciitilde">
          1322 1036 625 rmoveto
          -150 -137 208 -224 hhcurveto
          -219 -148 -179 -321 -26 hvcurveto
          231 hlineto
          142 20 56 114 callgsubr
          178 322 26 hvcurveto
          -231 hlineto
          -142 -20 -56 -66 -90 hhcurveto
          endchar
        </CharString>
        <CharString name="asterisk">
          984 780 1475 rmoveto
          -73 -47 -52 -96 -22 2 -24 5 -27 hvcurveto
          33 -190 30 0 115 181 rlineto
          30 46 11 41 34 vvcurveto
          66 -44 43 -62 vhcurveto
          -311 -139 rmoveto
          -68 -51 -52 -63 -60 40 -50 115 -28 hvcurveto
          178 -44 17 25 -83 161 rlineto
          81 -42 -56 30 -50 hhcurveto
          560 -57 rmoveto
          -52 -40 -23 -64 -68 hvcurveto
          -139 -128 11 -27 147 6 rlineto
          184 5 65 56 72 vvcurveto
          60 -43 43 -65 vhcurveto
          -634 -483 rmoveto
          52 40 24 64 68 hvcurveto
          139 128 -11 27 -147 -6 rlineto
          -185 -5 -64 -56 -72 vvcurveto
          -60 43 -44 65 vhcurveto
          679 59 rmoveto
          59 -40 51 -115 27 vhcurveto
          -178 45 -17 -25 83 -161 rlineto
          -81 42 56 -30 50 hhcurveto
          68 51 52 63 hvcurveto
          -430 -254 rmoveto
          73 47 52 95 23 -2 24 -5 27 hvcurveto
          -33 190 -30 0 -115 -181 rlineto
          -30 -46 -12 -41 -34 vvcurveto
          -66 45 -43 62 vhcurveto
          endchar
        </CharString>
        <CharString name="at">
          2168 1545 -294 rmoveto
          -1 142 rlineto
          -69 -129 -131 -19 -165 hhcurveto
          -411 -296 257 438 429 314 437 550 484 254 -260 -361 -270 -148 -174 -162 -81 -8 39 99 20 hvcurveto
          131 610 -266 0 -102 -114 rlineto
          93 -40 -89 50 -121 hhcurveto
          -280 -185 -299 -327 -229 99 -120 155 139 109 78 163 82 hvcurveto
          -2 -14 -1 -13 -14 vvcurveto
          -131 113 -99 194 365 286 281 424 454 -375 316 -572 -690 -382 -534 -515 -554 395 -323 487 195 186 61 68 79 vhcurveto
          -469 717 rmoveto
          172 82 287 115 50 31 -43 -87 -16 vhcurveto
          -64 -299 rlineto
          -99 -21 -51 -59 -55 hhcurveto
          -47 -24 38 90 hvcurveto
          endchar
        </CharString>
        <CharString name="atilde">
          1361 1073 -102 callgsubr
          -41 callgsubr
          -61 -63 201 callsubr
          40 hhcurveto
          27 -49 callgsubr
          -899 -830 -106 callsubr
          -102 callsubr
        </CharString>
        <CharString name="austral">
          1536 79 367 rmoveto
          205 hlineto
          -43 -76 -61 -111 -27 -24 -120 -14 rlinecurve
          -30 -142 490 0 30 142 -121 15 -14 29 54 103 rlinecurve
          42 78 473 0 8 -78 11 -106 -17 -23 -137 -18 rlinecurve
          -29 -142 737 0 30 142 -115 14 -18 24 -15 111 rlinecurve
          -10 76 211 0 23 108 -248 0 -22 165 305 0 23 108 -343 0 -93 696 -376 0 -386 -696 -335 0 -24 -108 299 0 -92 -165 rlineto
          -242 hlineto
          584 273 rmoveto
          190 359 39 -359 rlineto
          -374 -273 rmoveto
          88 165 298 0 18 -165 rlineto
          endchar
        </CharString>
        <CharString name="austral.tnum">
          1376 92 464 rmoveto
          -24 -107 164 0 -34 -66 -57 -110 -21 -27 -95 -12 rlinecurve
          -30 -142 459 0 30 142 -122 16 -8 25 52 106 rlinecurve
          34 68 404 0 4 -68 6 -106 -16 -22 -137 -19 rlinecurve
          -30 -142 710 0 31 142 -92 12 -10 26 -9 111 rlinecurve
          -6 66 164 0 23 107 -197 0 -14 166 246 0 23 107 -279 0 -63 707 -406 0 -364 -707 -278 0 -23 -107 245 0 -85 -166 rlineto
          340 273 rmoveto
          172 350 21 -350 rlineto
          -327 -273 rmoveto
          81 166 253 0 10 -166 rlineto
          endchar
        </CharString>
        <CharString name="b">
          -64 callgsubr
          endchar
        </CharString>
        <CharString name="backslash">
          892 491 -280 rmoveto
          288 hlineto
          -103 1860 rlineto
          -288 hlineto
          endchar
        </CharString>
        <CharString name="baht">
          1539 1563 461 rmoveto
          144 -105 138 -263 34 vhcurveto
          241 21 191 102 1 189 rrcurveto
          177 -131 116 -336 26 vhcurveto
          47 223 -107 0 -47 -218 rlineto
          1 -17 -18 0 -18 hhcurveto
          -651 hlineto
          -30 -142 132 66 callgsubr
          703 0 -46 -220 107 0 48 222 rlineto
          447 22 247 158 249 vvcurveto
          -742 370 rmoveto
          90 421 42 -2 rlineto
          23 22 -3 -3 20 hvcurveto
          -87 -412 rlineto
          -1 -10 -10 0 -10 hhcurveto
          273 230 rmoveto
          -99 -45 -71 -85 -36 vhcurveto
          73 346 rlineto
          38 -31 19 -46 -63 vvcurveto
          -387 -393 rmoveto
          79 -1 rlineto
          10 -1 10 0 9 -1 -100 -470 rcurveline
          -2 -21 -22 -1 -23 hhcurveto
          -45 hlineto
          403 262 rmoveto
          -116 -57 -83 -122 -39 vhcurveto
          88 418 rlineto
          58 -34 33 -60 -86 vvcurveto
          endchar
        </CharString>
        <CharString name="baht.tnum">
          23 callgsubr
          158 -116 114 -302 23 vhcurveto
          47 222 -107 0 -47 -217 rlineto
          -6 -6 0 -7 hhcurveto
          -598 hlineto
          28 callgsubr
          617 0 -47 -220 108 0 47 221 rlineto
          416 15 231 160 255 vvcurveto
          -658 370 rmoveto
          89 421 41 -2 rlineto
          11 -1 11 -1 10 -1 -89 -416 rcurveline
          -3 hlineto
          235 255 rmoveto
          -101 -41 -85 -77 -42 vhcurveto
          74 348 rlineto
          29 -26 15 -39 -55 vvcurveto
          -339 -418 rmoveto
          50 -1 rlineto
          7 -1 8 0 7 -1 -100 -471 rcurveline
          -1 -8 -7 0 -8 hhcurveto
          -53 -1 rlineto
          354 301 rmoveto
          -131 -56 -99 -109 -44 vhcurveto
          89 416 rlineto
          51 -29 25 -49 -64 vvcurveto
          endchar
        </CharString>
        <CharString name="bar">
          892 242 -280 rmoveto
          288 hlineto
          395 1860 rlineto
          -288 hlineto
          endchar
        </CharString>
        <CharString name="bdotaccent">
          1352 752 1577 rmoveto
          122 98 -51 callsubr
          -99 -98 -122 -109 87 -89 118 hvcurveto
          650 -894 rmoveto
          257 -133 137 221 callsubr
          endchar
        </CharString>
        <CharString name="bdotbelow">
          -64 callgsubr
          -338 -1147 -82 callsubr
          -52 callsubr
          38 callsubr
        </CharString>
        <CharString name="becyrillic">
          1321 1352 573 rmoveto
          278 -169 175 -292 -211 -162 -110 -145 -85 vhcurveto
          2 0 3 3 vvcurveto
          2 200 103 146 310 14 rrcurveto
          171 7 333 14 119 97 62 302 rlinecurve
          -141 hlineto
          -25 -47 -88 -19 -147 -4 rrcurveto
          -573 -14 -367 -383 -578 vvcurveto
          -348 180 -192 322 359 299 247 352 vhcurveto
          -429 102 rmoveto
          -195 -78 -324 -133 -59 -34 55 123 196 78 323 133 60 33 -55 -123 vhcurveto
          endchar
        </CharString>
        <CharString name="betagreek">
          1350 12 -460 rmoveto
          453 hlineto
          91 578 rlineto
          -83 73 112 -60 137 hhcurveto
          281 208 206 249 31 hvcurveto
          34 270 -153 140 -191 26 184 78 96 96 18 147 rrcurveto
          208 27 -131 160 -338 hhcurveto
          -319 -224 -193 -380 -81 hvcurveto
          453 176 rmoveto
          136 29 39 69 75 hhcurveto
          55 52 -54 -154 -27 hvcurveto
          -22 -140 -51 -70 -130 -10 rrcurveto
          -56 -266 156 -4 79 -76 -22 -182 rlinecurve
          -168 -21 -91 -63 -88 hhcurveto
          -69 -52 33 59 -44 hvcurveto
          endchar
        </CharString>
        <CharString name="bitcoin">
          1539 1563 461 rmoveto
          144 -104 138 -264 34 vhcurveto
          241 21 191 102 1 189 rrcurveto
          156 -102 109 -256 41 vhcurveto
          51 236 -109 0 -48 -223 rlineto
          4 -48 -53 2 -57 hhcurveto
          47 218 -109 -1 -46 -217 -548 0 -30 -142 132 66 callgsubr
          547 0 -47 -219 108 0 47 219 rlineto
          49 hlineto
          39 37 1 2 35 hvcurveto
          -47 -222 108 0 49 230 rlineto
          376 41 205 152 227 vvcurveto
          -389 600 rmoveto
          -144 -95 -86 -178 vhcurveto
          -80 hlineto
          90 421 42 -2 rlineto
          145 -4 76 -60 -125 vvcurveto
          -87 -607 rmoveto
          -162 -112 -99 -246 -1 vhcurveto
          -45 hlineto
          103 476 79 -1 rlineto
          138 -4 83 -72 -137 vvcurveto
          endchar
        </CharString>
</ttFont>
